<?xml version="1.0" standalone="no"?>
<!DOCTYPE svg PUBLIC "-//W3C//DTD SVG 20010904//EN"
 "http://www.w3.org/TR/2001/REC-SVG-20010904/DTD/svg10.dtd">
<svg version="1.0" xmlns="http://www.w3.org/2000/svg"
 width="640.000000pt" height="640.000000pt" viewBox="0 0 640.000000 640.000000"
 preserveAspectRatio="xMidYMid meet">
<metadata>
Created by potrace 1.11, written by Peter Selinger 2001-2013
</metadata>
<g transform="translate(0.000000,640.000000) scale(0.100000,-0.100000)"
fill="#000000" stroke="none">
<path d="M3579 5936 c-24 -24 -50 -41 -57 -39 -6 3 -9 9 -6 15 4 6 -3 8 -16 6
-24 -3 -38 -42 -20 -53 10 -6 -15 -52 -39 -71 -12 -10 -12 -14 1 -33 17 -24
13 -50 -12 -88 -27 -41 -43 -29 -38 27 3 27 3 52 0 54 -2 3 -15 0 -29 -5 -30
-11 -63 11 -63 43 0 13 -10 20 -30 25 -16 3 -30 9 -30 14 0 14 -72 46 -122 53
-53 8 -78 -2 -120 -46 -14 -15 -37 -28 -50 -28 -12 -1 -36 -7 -53 -14 -29 -13
-28 -14 26 -10 50 4 57 2 62 -15 7 -28 -11 -40 -61 -39 -23 0 -48 -4 -55 -9
-6 -5 -43 -15 -82 -23 -38 -7 -82 -21 -97 -31 -14 -11 -33 -19 -42 -19 -9 0
-19 -6 -22 -14 -3 -8 -36 -34 -72 -57 -37 -24 -107 -82 -157 -130 -49 -48
-115 -109 -145 -135 -81 -73 -288 -281 -347 -351 -76 -89 -161 -221 -241 -374
-38 -74 -79 -150 -90 -169 -136 -232 -170 -314 -153 -378 7 -24 7 -58 2 -94
-6 -31 -7 -65 -5 -76 3 -10 1 -45 -5 -76 -12 -66 -1 -141 30 -194 23 -40 23
-49 3 -87 -9 -16 -27 -63 -40 -102 -13 -40 -28 -81 -33 -90 -30 -54 -47 -234
-27 -278 9 -18 8 -19 -7 -6 -15 12 -17 10 -17 -17 0 -21 7 -35 19 -41 11 -6
27 -35 37 -67 10 -31 28 -67 42 -79 23 -21 23 -25 12 -60 -7 -22 -10 -56 -6
-84 9 -67 -17 -149 -49 -157 -14 -3 -23 -10 -20 -14 3 -5 -5 -16 -17 -24 -21
-15 -20 -15 17 -9 l38 6 -7 -39 c-4 -21 -14 -44 -22 -50 -8 -6 -14 -16 -14
-22 0 -18 -20 -24 -36 -11 -11 9 -20 9 -41 0 -14 -6 -23 -15 -19 -18 4 -4 -4
-13 -16 -20 -13 -7 -17 -12 -10 -13 19 0 14 -20 -9 -39 -30 -24 -12 -61 44
-89 30 -15 47 -30 49 -45 2 -12 12 -26 23 -32 11 -6 32 -19 47 -29 26 -17 27
-20 13 -39 -14 -20 -12 -24 17 -54 18 -18 35 -33 39 -33 4 0 21 -13 37 -30 17
-16 39 -30 49 -30 10 0 29 -8 43 -17 28 -19 58 -24 81 -12 8 4 21 4 28 0 10
-6 9 -12 -4 -25 -9 -9 -20 -16 -25 -16 -5 0 -16 -3 -24 -6 -11 -4 -15 -2 -11
8 6 14 2 15 -47 9 -4 -1 -20 -12 -35 -26 -47 -42 -52 -45 -63 -45 -14 0 -13
-13 2 -28 9 -9 9 -15 0 -24 -16 -16 -61 8 -81 44 -9 16 -22 28 -29 28 -8 0
-12 -3 -10 -7 2 -5 12 -25 21 -46 10 -20 21 -37 26 -37 6 0 13 -10 17 -22 4
-13 13 -28 22 -34 21 -16 11 -49 -16 -48 -25 1 -30 -21 -6 -30 9 -3 13 -13 10
-23 -6 -21 31 -68 62 -77 11 -4 32 -30 47 -61 14 -30 30 -55 35 -55 5 0 23
-14 40 -31 29 -29 35 -31 87 -27 36 3 60 11 68 21 13 18 48 13 96 -14 13 -8
26 -15 28 -16 7 -4 -108 -115 -159 -153 -50 -38 -109 -57 -185 -61 -46 -2 -82
2 -67 8 19 7 14 31 -8 38 -11 3 -20 11 -20 16 0 6 5 7 11 3 6 -3 3 5 -6 20 -9
14 -21 23 -26 21 -4 -3 -6 4 -4 15 2 11 0 20 -6 20 -5 0 -9 12 -10 28 0 15 -3
21 -6 15 -3 -9 -10 -10 -23 -3 -13 7 -20 6 -22 -2 -3 -9 -6 -9 -11 -1 -4 6 0
18 9 27 20 20 8 39 -20 32 -31 -8 -111 80 -93 103 10 12 9 13 -1 7 -7 -4 -17
-18 -22 -30 -8 -19 -9 -19 -9 7 -1 15 -5 27 -11 27 -5 0 -6 -8 -3 -18 4 -9 -5
-4 -21 13 -24 26 -29 28 -39 14 -13 -17 -38 -14 -50 7 -4 8 -15 14 -22 14 -8
0 -15 5 -15 11 0 6 -10 8 -22 5 -13 -3 -17 -3 -10 0 18 9 15 35 -4 27 -9 -3
-20 0 -25 8 -7 11 -9 10 -10 -6 0 -16 -3 -14 -11 8 -10 29 -28 37 -28 13 0 -8
-4 -17 -8 -20 -5 -3 -8 14 -8 37 1 23 -3 43 -9 45 -5 1 -11 -2 -11 -8 -1 -5
-2 -12 -3 -15 0 -3 -10 -1 -20 5 -14 7 -21 6 -24 -3 -4 -9 -6 -9 -6 1 -1 6 8
21 19 32 l20 20 -22 9 c-25 9 -51 -12 -64 -52 -4 -12 -16 -28 -27 -38 -17 -13
-19 -20 -9 -31 8 -10 8 -18 2 -24 -7 -7 -2 -15 14 -23 13 -7 29 -23 36 -35 6
-13 26 -31 43 -41 36 -21 58 -46 51 -57 -3 -4 2 -5 10 -2 10 4 18 -1 22 -11 5
-13 9 -14 15 -3 7 10 11 7 15 -10 4 -12 20 -30 36 -38 16 -8 26 -19 23 -24 -4
-6 1 -13 9 -16 9 -3 16 -14 17 -23 0 -10 2 -11 6 -3 2 6 9 12 14 12 4 0 5 -8
2 -17 -5 -13 -2 -15 11 -10 9 4 15 3 11 -2 -3 -6 7 -22 21 -36 21 -21 24 -29
13 -35 -7 -5 -17 -6 -22 -3 -4 3 -17 -3 -29 -13 -18 -17 -21 -17 -31 -3 -7 9
-18 14 -24 12 -8 -3 -13 4 -13 17 0 12 -4 18 -10 15 -6 -4 -8 6 -6 25 3 24 1
28 -9 20 -10 -8 -16 -6 -24 7 -10 17 -10 17 -11 1 0 -23 -19 -23 -35 -1 -7 9
-23 17 -36 19 -13 1 -26 3 -28 3 -2 1 2 8 10 17 11 13 10 15 -3 12 -23 -4 -54
36 -63 80 -8 35 -8 36 -15 12 l-8 -25 -1 28 c-1 16 -5 26 -11 22 -5 -3 -10 0
-10 8 0 10 -7 13 -20 10 -13 -4 -22 1 -26 13 -18 55 -27 64 -62 60 -22 -2 -35
1 -39 10 -3 8 -9 14 -14 14 -5 0 -4 -9 3 -20 7 -11 19 -20 26 -20 7 0 10 -4 7
-10 -7 -11 42 -79 152 -212 103 -125 325 -343 448 -441 285 -227 635 -413 990
-527 114 -37 321 -90 350 -90 10 0 -64 43 -270 158 -103 57 -211 128 -255 168
-14 13 -36 27 -50 32 -59 22 -340 257 -340 284 0 4 9 8 20 8 12 0 34 6 49 14
30 16 97 16 121 1 31 -20 85 -45 96 -45 6 0 19 -9 28 -19 10 -11 24 -17 32
-14 16 6 76 -41 86 -68 4 -11 16 -19 27 -19 10 0 21 -6 24 -14 3 -7 17 -16 30
-20 30 -7 81 10 72 24 -5 8 13 14 36 12 3 -1 5 13 4 30 -1 22 3 32 17 36 10 2
18 14 19 26 2 60 18 126 30 126 5 0 9 -5 9 -10 0 -7 6 -7 20 0 11 6 20 17 20
25 0 8 7 15 15 15 8 0 15 -4 15 -9 0 -5 10 -11 23 -15 13 -3 37 -18 53 -33 38
-36 94 -67 94 -52 0 8 5 8 15 -1 8 -7 13 -15 11 -19 -3 -4 4 -8 15 -8 11 -1
32 -12 47 -23 l27 -22 3 21 c3 16 7 19 20 12 19 -10 72 -3 72 9 0 5 -4 10 -9
12 -5 2 -11 24 -14 50 l-6 46 70 7 c38 4 85 7 104 7 19 0 38 4 41 9 9 15 30
11 91 -18 32 -14 60 -27 63 -27 3 -1 24 -9 45 -18 105 -44 296 -80 310 -58 4
6 -6 10 -22 10 -16 1 -43 13 -63 30 l-34 30 59 0 c37 1 68 6 79 15 17 13 18
15 3 15 -9 0 -17 5 -17 10 0 10 5 11 45 14 51 4 104 22 152 53 29 18 53 31 53
27 0 -3 22 13 49 35 27 23 54 41 59 41 6 0 15 7 20 15 4 9 21 19 37 24 23 6
31 15 36 40 4 19 16 45 28 60 11 14 37 49 56 76 19 28 48 66 64 84 l29 35 41
-14 c37 -12 44 -12 58 3 14 14 15 22 5 53 -6 21 -9 41 -5 47 3 5 -1 20 -8 34
-12 23 -12 27 5 37 11 6 28 19 39 29 10 11 54 27 98 38 76 18 159 59 159 79 0
5 -5 12 -11 15 -24 15 1 39 90 83 88 44 124 72 109 87 -3 4 -21 2 -40 -3 -61
-17 -179 10 -154 35 4 5 51 11 105 14 83 5 104 10 146 35 27 16 58 34 69 39
26 14 59 80 51 104 -8 27 -47 39 -141 44 -94 4 -154 32 -154 71 0 39 54 101
122 139 76 43 165 110 201 153 15 17 42 58 60 91 31 55 47 98 134 358 19 55
44 123 58 150 39 82 63 224 55 330 -8 99 -15 119 -104 260 -31 49 -56 95 -56
103 0 8 -9 29 -19 46 -11 17 -25 54 -32 81 -7 28 -20 64 -30 80 -9 17 -20 46
-24 65 -6 33 -5 34 9 16 25 -31 29 -12 13 61 -8 37 -20 100 -26 138 -26 163
-79 345 -141 484 -39 86 -89 230 -131 371 -25 85 -64 176 -87 203 -8 9 -12 20
-9 23 13 13 -26 66 -113 153 -50 50 -94 91 -98 91 -4 0 -19 13 -32 30 -16 18
-35 29 -51 30 -14 0 -51 18 -83 40 -90 63 -126 78 -259 109 -26 6 -62 11 -81
11 -18 0 -39 7 -46 15 -8 10 -17 12 -30 5 -9 -5 -34 -7 -56 -6 -21 2 -50 5
-64 5 -22 1 -23 3 -7 12 22 13 22 30 -4 74 -35 59 -50 61 -100 11z m14 -68
c-3 -18 -15 -49 -27 -68 l-21 -35 -3 33 c-2 19 3 38 12 48 9 8 21 24 26 35 16
28 20 23 13 -13z m-469 -44 c15 -6 23 -34 10 -34 -13 0 -44 21 -44 30 0 11 11
13 34 4z m396 -32 c0 -10 -11 -29 -25 -42 l-25 -23 0 21 c0 14 -6 22 -17 22
-11 0 -4 8 17 19 44 25 50 25 50 3z m-749 -118 c-18 -8 -38 -13 -45 -11 -14 6
32 26 59 26 14 -1 10 -5 -14 -15z m1823 -300 c3 -8 2 -12 -4 -9 -6 3 -10 10
-10 16 0 14 7 11 14 -7z m-824 -256 c13 8 27 9 38 3 9 -4 26 -5 37 0 28 11 37
11 30 -1 -7 -12 8 -14 19 -2 11 10 70 9 78 -2 4 -6 13 -5 23 4 11 9 19 10 27
2 6 -6 17 -8 26 -4 12 4 14 1 9 -12 -6 -14 -3 -16 13 -11 16 5 42 -10 108 -62
48 -37 110 -91 138 -119 101 -100 211 -292 270 -472 26 -79 67 -267 78 -357
21 -162 35 -330 36 -401 0 -44 6 -125 14 -180 8 -54 18 -145 21 -201 6 -85 10
-103 25 -108 32 -10 41 -142 15 -216 -17 -47 -21 -139 -10 -207 4 -23 4 -53 1
-67 -8 -31 -61 -92 -96 -110 -25 -13 -29 -22 -40 -102 -28 -213 -61 -328 -131
-471 -37 -75 -68 -121 -110 -164 -33 -33 -59 -67 -59 -75 0 -7 -7 -16 -15 -19
-8 -4 -15 -17 -15 -31 0 -13 -11 -34 -25 -47 -14 -13 -25 -28 -25 -35 0 -14
-15 -14 -41 -1 -22 13 -27 -7 -6 -29 10 -11 8 -13 -10 -8 -19 4 -20 3 -10 -14
21 -33 -1 -32 -31 3 -33 36 -52 33 -34 -7 10 -22 9 -25 -9 -25 -11 0 -17 -4
-14 -10 3 -5 -3 -19 -14 -31 -16 -18 -18 -26 -9 -51 9 -25 8 -33 -4 -42 -8 -6
-13 -17 -10 -25 9 -26 -21 -5 -39 28 -24 45 -26 46 -21 8 2 -17 14 -42 25 -55
18 -19 18 -22 4 -22 -9 0 -17 -5 -17 -11 0 -6 -7 -9 -15 -6 -12 5 -12 2 -3
-19 15 -31 -7 -51 -32 -30 -12 11 -18 10 -31 -4 -15 -16 -15 -19 2 -41 16 -21
25 -49 15 -49 -19 0 -66 25 -66 35 0 7 -7 18 -15 25 -12 10 -15 10 -15 -3 0
-9 4 -18 9 -21 13 -8 20 -55 12 -84 l-7 -27 -28 28 c-30 30 -41 34 -32 12 3
-8 2 -14 -2 -13 -4 1 -18 -4 -31 -11 -18 -10 -20 -15 -11 -21 11 -7 10 -12 -3
-25 -10 -9 -17 -21 -17 -26 0 -6 -4 -7 -10 -4 -5 3 -10 15 -10 26 0 12 -7 19
-20 19 -21 0 -28 -26 -9 -32 7 -2 5 -9 -5 -17 -10 -9 -16 -9 -16 -2 0 6 -11 8
-30 4 -20 -3 -30 -1 -30 6 0 15 -25 41 -39 41 -6 0 -11 14 -11 30 0 28 -2 29
-20 18 -14 -9 -19 -20 -15 -34 3 -12 -1 -27 -9 -33 -12 -10 -14 -8 -12 13 2
15 -1 26 -5 26 -5 0 -9 -4 -9 -9 0 -5 -8 -12 -17 -15 -10 -2 -28 -7 -40 -11
-18 -5 -20 -2 -16 15 5 20 -7 27 -21 12 -4 -4 -19 -7 -33 -7 -19 -1 -31 8 -46
32 -10 18 -23 33 -28 33 -5 0 -9 7 -9 15 0 8 -3 14 -7 13 -15 -4 -53 27 -53
43 0 8 -11 26 -25 39 -19 18 -25 20 -25 8 0 -9 -6 -18 -13 -21 -20 -7 -47 17
-47 43 0 16 -4 21 -16 16 -10 -4 -18 0 -21 13 -3 11 -14 22 -25 24 -11 3 -17
10 -13 16 3 6 2 11 -4 11 -6 0 -8 6 -5 13 2 7 -7 19 -21 27 -14 7 -25 19 -25
25 0 23 -40 94 -64 112 -23 19 -23 20 -5 31 22 14 26 34 4 26 -8 -4 -15 -1
-15 5 0 6 -7 11 -15 11 -21 0 -41 40 -24 51 10 6 7 13 -14 29 -15 12 -27 28
-27 36 0 8 -6 14 -13 14 -7 0 -19 16 -26 35 -10 29 -16 35 -33 29 -14 -4 -18
-3 -13 6 4 6 -2 22 -14 34 -12 13 -19 29 -16 37 3 9 -6 25 -20 39 -14 13 -25
31 -25 41 0 10 -5 21 -11 24 -5 4 -8 12 -6 18 2 7 -2 26 -9 43 -8 18 -9 36 -4
44 6 10 3 21 -7 32 -15 17 -15 18 1 18 13 0 16 5 11 20 -5 14 -2 20 9 20 10 0
16 -9 16 -22 0 -21 1 -21 17 -5 13 13 15 21 7 34 -11 18 3 91 22 108 21 20 33
62 21 75 -9 10 -9 14 1 17 17 6 15 31 -3 49 -8 9 -15 26 -15 40 0 13 -5 24
-10 24 -6 0 -10 8 -8 17 2 11 -8 22 -24 31 -16 7 -28 20 -28 27 0 8 -11 17
-25 21 -16 4 -25 13 -25 25 0 10 -4 19 -10 19 -5 0 -10 -6 -10 -12 0 -9 -3 -9
-9 1 -5 8 -7 21 -4 30 5 13 3 14 -7 4 -11 -10 -16 -8 -24 10 -7 12 -22 23 -35
25 -17 3 -22 9 -18 22 6 24 -31 39 -44 19 -14 -23 -24 1 -24 59 0 51 -2 57
-22 60 -15 2 -23 10 -23 24 0 14 5 18 15 14 20 -7 20 32 0 60 -12 19 -12 24 0
40 19 25 19 34 -2 34 -16 1 -16 2 2 16 14 11 16 18 7 21 -6 3 -10 8 -7 13 3 4
-5 6 -17 2 -14 -3 -19 -2 -14 6 4 7 14 12 21 12 11 0 12 6 5 26 -7 19 -7 31 1
40 15 18 69 18 69 1 0 -7 18 -23 39 -35 23 -13 41 -32 45 -47 5 -20 15 -26 46
-31 22 -4 40 -10 40 -14 0 -12 103 -18 117 -7 7 5 18 5 24 1 34 -20 158 -13
229 13 17 7 30 9 84 18 21 3 47 10 58 16 10 6 34 11 51 11 18 0 42 7 55 14 19
13 22 13 22 -1 0 -9 5 -13 10 -10 6 3 10 15 10 25 0 13 9 22 26 26 29 8 57
-12 36 -25 -9 -5 -5 -11 13 -21 14 -7 25 -17 25 -22 0 -4 7 -8 15 -8 8 0 15
-4 15 -9 0 -12 -29 -23 -42 -15 -6 4 -5 -3 1 -15 8 -14 9 -27 2 -40 -6 -10 -8
-21 -5 -24 6 -6 -31 -47 -42 -47 -23 0 -162 -110 -180 -142 -5 -9 -30 -38 -55
-65 -25 -26 -51 -63 -57 -81 -6 -18 -18 -39 -26 -48 -9 -9 -13 -27 -11 -47 5
-37 -12 -100 -26 -92 -5 4 -9 1 -9 -5 0 -7 -11 -21 -24 -31 -21 -16 -24 -25
-19 -55 5 -29 2 -36 -13 -40 -10 -3 -27 -16 -37 -29 -15 -21 -16 -31 -5 -94 7
-39 16 -71 20 -71 4 0 8 -14 8 -32 0 -18 13 -51 29 -77 17 -25 44 -82 61 -126
18 -44 38 -87 46 -96 8 -8 14 -23 14 -32 0 -9 5 -19 11 -23 8 -5 8 -8 0 -13
-6 -4 -14 -21 -17 -39 -5 -27 -3 -32 17 -37 15 -4 31 -21 43 -46 19 -39 31
-44 93 -42 7 1 10 -3 7 -8 -3 -5 -2 -9 3 -9 12 0 35 16 34 24 -5 40 -1 44 39
40 32 -4 40 -2 40 12 0 13 7 15 33 10 26 -4 35 -1 50 19 17 24 17 25 -3 25
-11 0 -20 -7 -20 -15 0 -22 -8 -19 -40 17 -28 31 -32 52 -7 42 7 -2 22 4 33
14 16 16 34 19 90 18 48 -1 74 4 87 14 18 16 23 50 7 50 -5 0 -10 -7 -10 -15
0 -19 -14 -19 -32 -2 -7 8 -18 12 -24 10 -6 -2 -14 6 -17 17 -5 18 -9 20 -26
10 -28 -14 -57 1 -63 34 -6 31 13 36 187 46 96 5 144 13 185 28 30 12 64 22
75 22 20 1 20 1 1 15 -18 13 -22 13 -38 -5 -17 -18 -48 -18 -48 1 0 17 -15 9
-25 -14 -10 -21 -15 -22 -130 -22 -104 0 -125 3 -150 20 -17 11 -43 20 -58 21
-59 4 -91 67 -62 123 8 17 21 31 29 31 17 0 42 -28 50 -57 10 -32 19 -28 38
17 14 35 21 40 48 40 17 0 39 -4 49 -10 16 -8 63 0 150 26 27 9 -6 27 -56 31
-26 2 -84 13 -128 23 -44 11 -97 21 -118 23 -25 3 -43 11 -53 26 -13 17 -13
22 -3 20 33 -6 80 14 89 37 5 13 15 24 22 24 7 0 31 16 53 36 22 20 53 40 68
46 18 7 25 13 17 18 -6 4 -10 11 -8 17 2 5 -12 22 -29 37 -18 15 -38 38 -45
51 -7 12 -32 48 -55 78 -28 36 -41 62 -38 77 3 17 0 20 -15 15 -34 -11 -32 15
5 59 20 24 32 47 27 50 -15 9 -12 64 4 77 14 11 13 15 -8 32 -16 13 -18 17 -5
13 13 -4 17 0 17 20 0 19 4 25 15 20 8 -3 15 -1 15 5 0 6 5 7 10 4 15 -9 16
34 6 205 -8 140 -16 198 -32 243 -16 46 -42 79 -55 71 -5 -3 -12 2 -15 10 -3
9 -10 14 -14 11 -4 -3 -26 13 -49 35 -23 22 -47 40 -54 40 -8 0 -22 9 -32 20
-10 11 -23 19 -29 17 -6 -2 -29 2 -51 10 -46 16 -88 23 -160 26 -27 1 -55 5
-61 9 -7 5 -31 1 -54 -7 -38 -13 -41 -13 -30 0 10 12 9 15 -4 15 -10 0 -15 4
-11 9 3 5 1 12 -4 15 -5 4 -12 2 -16 -4 -3 -5 -16 -10 -27 -10 -12 0 -18 3
-15 6 3 4 2 15 -4 25 -7 15 -14 17 -28 10 -24 -13 -61 -10 -61 5 0 7 7 15 16
18 8 3 12 10 9 16 -6 10 29 68 48 81 5 4 6 12 3 18 -4 6 0 11 8 11 9 0 16 5
16 10 0 6 -4 10 -9 10 -5 0 -12 10 -16 23 -6 19 -8 19 -12 5 -5 -22 -33 -24
-33 -3 0 8 -7 15 -15 15 -12 0 -13 4 -5 19 13 25 13 27 -5 45 -13 12 -14 20
-5 36 6 11 16 18 22 14 6 -4 2 7 -8 25 -10 17 -24 29 -31 27 -27 -11 -17 20
11 32 22 9 27 15 17 21 -9 6 -6 10 13 15 14 3 26 11 26 16 0 6 7 10 16 10 12
0 15 6 10 25 -4 15 -2 25 4 25 6 0 9 8 6 18 -3 9 -1 24 4 32 8 13 10 13 10 1
0 -11 3 -12 11 -4 7 7 8 17 1 29 -5 11 -7 25 -4 33 3 8 0 11 -7 7 -20 -13 -4
57 18 75 12 10 24 32 27 51 12 73 15 80 29 74 12 -4 12 0 -2 21 -17 26 -17 26
34 72 62 56 131 83 218 85 44 1 65 5 65 14 0 6 7 12 15 12 7 0 18 7 23 17 6
10 21 16 41 15 17 0 29 3 26 8 -3 4 4 6 15 3 22 -6 26 7 9 24 -9 9 -7 10 9 6
15 -3 24 0 28 11 4 9 22 23 40 31 19 8 34 18 33 22 -4 27 2 32 26 23 26 -10
33 -2 14 17 -9 9 -8 16 4 28 9 9 21 23 26 32 10 19 121 32 121 15 0 -12 92 17
98 30 2 5 13 3 24 -3 16 -9 24 -7 36 5 12 12 18 13 24 3 6 -9 12 -9 28 1z
m-390 -98 c0 -5 -4 -10 -10 -10 -5 0 -10 5 -10 10 0 6 5 10 10 10 6 0 10 -4
10 -10z m-685 -1070 c-3 -5 -10 -10 -16 -10 -5 0 -9 5 -9 10 0 6 7 10 16 10 8
0 12 -4 9 -10z m-77 -181 c-2 -6 -8 -10 -13 -10 -5 0 -11 4 -13 10 -2 6 4 11
13 11 9 0 15 -5 13 -11z m159 -65 c-3 -3 -12 -4 -19 -1 -8 3 -5 6 6 6 11 1 17
-2 13 -5z m-1297 -89 c0 -8 -2 -15 -4 -15 -2 0 -6 7 -10 15 -3 8 -1 15 4 15 6
0 10 -7 10 -15z m1412 -26 c11 -6 17 -16 15 -22 -8 -27 -178 -60 -192 -38 -3
6 -1 11 4 11 6 0 11 9 11 20 0 14 7 20 21 20 11 0 18 4 14 9 -12 20 90 19 127
0z m98 -102 c60 -14 107 -36 79 -37 -9 0 -38 7 -65 15 -27 8 -73 15 -102 15
-33 0 -51 4 -47 10 8 14 69 12 135 -3z m59 -83 c34 -29 41 -68 14 -79 -15 -5
-11 -9 17 -21 32 -14 70 -13 123 2 9 3 17 1 17 -4 0 -18 -73 -44 -121 -44 -49
0 -58 -5 -39 -24 16 -16 -38 -50 -99 -63 -58 -12 -114 -6 -131 13 -7 10 7 16
60 26 39 7 70 17 70 21 0 14 -24 23 -28 11 -2 -8 -13 -7 -35 5 l-32 16 46 12
c60 16 63 18 83 60 11 23 15 46 11 65 -8 37 4 38 44 4z m-74 -15 c0 -20 -29
-17 -33 3 -2 11 3 16 15 14 10 -2 18 -9 18 -17z m151 -47 c-12 -13 -18 -13
-28 -4 -9 9 -8 12 5 12 9 0 17 5 17 11 0 5 5 7 11 3 7 -4 6 -11 -5 -22z
m-1681 -89 c-7 -30 -13 -39 -19 -32 -8 8 6 59 16 59 6 0 7 -11 3 -27z m-43
-75 c-7 -7 -12 -8 -12 -2 0 14 12 26 19 19 2 -3 -1 -11 -7 -17z m18 -48 c10 0
20 6 23 13 2 6 2 -1 -1 -18 -6 -40 -13 -50 -23 -34 -6 11 -9 10 -15 -4 -17
-46 -32 -1 -17 53 6 19 8 21 11 8 2 -10 12 -18 22 -18z m21 -253 c-7 -7 -15 1
-26 26 -19 46 -20 78 -1 71 8 -3 18 1 22 8 6 8 10 -7 12 -41 2 -30 -2 -59 -7
-64z m1919 99 c0 -3 -4 -8 -10 -11 -5 -3 -10 -1 -10 4 0 6 5 11 10 11 6 0 10
-2 10 -4z m-100 -206 c0 -5 -4 -10 -10 -10 -5 0 -10 5 -10 10 0 6 5 10 10 10
6 0 10 -4 10 -10z m-22 -640 c3 -21 2 -22 -12 -11 -19 16 -21 44 -3 39 6 -3
14 -15 15 -28z m-2391 -552 c-3 -8 -6 -5 -6 6 -1 11 2 17 5 13 3 -3 4 -12 1
-19z m663 -38 c0 -5 -2 -10 -4 -10 -3 0 -8 5 -11 10 -3 6 -1 10 4 10 6 0 11
-4 11 -10z m-580 -4 c0 -3 -4 -8 -10 -11 -5 -3 -10 -1 -10 4 0 6 5 11 10 11 6
0 10 -2 10 -4z m155 -106 c3 -5 -1 -10 -9 -10 -9 0 -16 5 -16 10 0 6 4 10 9
10 6 0 13 -4 16 -10z m92 -52 c-19 -12 -22 -10 -25 17 -2 24 -1 24 18 8 14
-13 16 -19 7 -25z m167 -109 c-6 -11 -24 -2 -24 11 0 5 7 7 15 4 8 -4 12 -10
9 -15z m1856 1 c0 -5 -5 -10 -11 -10 -5 0 -7 5 -4 10 3 6 8 10 11 10 2 0 4 -4
4 -10z m-2020 -216 c0 -14 -3 -14 -15 -4 -8 7 -15 14 -15 16 0 2 7 4 15 4 8 0
15 -7 15 -16z"/>
<path d="M2665 4190 c3 -5 11 -10 16 -10 6 0 7 5 4 10 -3 6 -11 10 -16 10 -6
0 -7 -4 -4 -10z"/>
<path d="M2700 4139 c0 -5 5 -7 10 -4 6 3 10 8 10 11 0 2 -4 4 -10 4 -5 0 -10
-5 -10 -11z"/>
<path d="M3988 3738 c-30 -10 -39 -33 -10 -24 9 3 36 10 60 16 23 6 42 13 42
15 0 9 -64 4 -92 -7z"/>
<path d="M4073 3715 l-21 -25 36 1 c57 2 87 12 90 32 3 18 -13 24 -23 7 -4 -6
-15 -6 -31 0 -31 12 -25 14 -51 -15z"/>
<path d="M3974 3582 c-43 -31 -114 -107 -114 -121 0 -5 7 -14 14 -21 11 -8 12
-18 6 -35 -6 -16 -6 -27 2 -31 7 -4 8 -3 4 4 -5 8 0 12 13 12 12 0 21 -6 21
-14 0 -8 3 -22 6 -30 4 -12 2 -15 -9 -10 -8 3 -18 1 -22 -5 -4 -7 5 -11 24
-11 17 0 31 5 31 10 0 6 7 10 15 10 8 0 15 5 15 10 0 6 -6 10 -12 10 -23 0
-39 16 -32 33 11 28 42 20 49 -12 3 -16 13 -35 21 -41 20 -17 136 -25 162 -11
31 16 55 68 50 107 -2 19 -1 34 3 34 17 0 65 -22 74 -33 19 -24 75 -59 88 -54
14 4 -31 49 -83 81 -64 41 -182 60 -255 43 -27 -7 -28 -6 -11 5 29 20 53 44
58 59 3 10 25 14 81 14 l77 -1 -42 13 c-24 7 -77 13 -119 13 -68 0 -80 -3
-115 -28z m20 -97 c-10 -8 -23 -14 -29 -14 -5 0 -1 6 9 14 11 8 24 15 30 15 5
0 1 -7 -10 -15z m216 -50 c0 -13 -14 -35 -22 -35 -15 0 -40 29 -34 39 5 7 56
4 56 -4z"/>
<path d="M4352 3525 c21 -19 43 -35 50 -35 18 0 -41 57 -66 64 -16 4 -13 -3
16 -29z"/>
<path d="M3960 3280 c0 -5 5 -10 10 -10 6 0 10 5 10 10 0 6 -4 10 -10 10 -5 0
-10 -4 -10 -10z"/>
<path d="M3735 2580 c-3 -5 3 -10 14 -10 11 0 23 5 26 10 3 6 -3 10 -14 10
-11 0 -23 -4 -26 -10z"/>
<path d="M4080 2535 c13 -14 28 -25 33 -25 12 0 -35 50 -47 50 -5 0 1 -11 14
-25z"/>
<path d="M3815 2230 c-10 -17 -5 -18 58 -22 37 -2 57 -7 57 -15 0 -22 -44
-108 -62 -121 -10 -7 -18 -18 -18 -24 0 -7 5 -5 13 3 22 28 67 50 87 44 12 -4
33 3 57 19 21 14 42 26 48 26 5 0 18 -20 28 -45 21 -50 27 -54 44 -26 23 36
34 97 23 127 l-10 29 -143 3 c-78 2 -149 5 -159 8 -9 3 -19 0 -23 -6z"/>
<path d="M4210 1860 c0 -5 5 -10 10 -10 6 0 10 5 10 10 0 6 -4 10 -10 10 -5 0
-10 -4 -10 -10z"/>
<path d="M4206 1691 c-3 -5 1 -14 9 -21 13 -10 15 -9 15 9 0 21 -14 28 -24 12z"/>
<path d="M3418 1663 c7 -3 16 -2 19 1 4 3 -2 6 -13 5 -11 0 -14 -3 -6 -6z"/>
<path d="M4024 1493 c14 -15 28 -24 32 -20 9 9 -25 47 -43 47 -9 0 -5 -9 11
-27z"/>
<path d="M3980 1380 c0 -5 5 -10 11 -10 5 0 7 5 4 10 -3 6 -8 10 -11 10 -2 0
-4 -4 -4 -10z"/>
<path d="M3940 1371 c0 -5 7 -12 16 -15 14 -5 15 -4 4 9 -14 17 -20 19 -20 6z"/>
<path d="M3280 1286 c0 -9 5 -16 10 -16 6 0 10 4 10 9 0 6 -4 13 -10 16 -5 3
-10 -1 -10 -9z"/>
<path d="M3740 1226 c0 -9 5 -16 10 -16 6 0 10 4 10 9 0 6 -4 13 -10 16 -5 3
-10 -1 -10 -9z"/>
<path d="M1220 2429 c0 -8 10 -15 23 -15 12 -1 33 -5 47 -9 23 -7 24 -6 10 8
-21 23 -80 34 -80 16z"/>
<path d="M1160 2379 c0 -5 5 -7 10 -4 6 3 10 8 10 11 0 2 -4 4 -10 4 -5 0 -10
-5 -10 -11z"/>
<path d="M277 2082 c1 -8 3 -16 3 -18 0 -11 19 -2 24 12 4 11 2 15 -8 11 -8
-3 -17 -3 -19 1 -2 4 -2 1 0 -6z"/>
<path d="M300 2022 c0 -11 7 -25 15 -32 12 -10 15 -9 15 8 0 11 -7 25 -15 32
-12 10 -15 9 -15 -8z"/>
<path d="M337 1944 c-8 -9 14 -54 24 -48 14 8 10 54 -4 54 -8 0 -16 -3 -20 -6z"/>
<path d="M1070 1100 c0 -5 5 -10 11 -10 5 0 7 5 4 10 -3 6 -8 10 -11 10 -2 0
-4 -4 -4 -10z"/>
<path d="M1515 1090 c3 -5 13 -10 21 -10 8 0 12 5 9 10 -3 6 -13 10 -21 10 -8
0 -12 -4 -9 -10z"/>
<path d="M3810 970 c0 -5 5 -10 11 -10 5 0 7 5 4 10 -3 6 -8 10 -11 10 -2 0
-4 -4 -4 -10z"/>
<path d="M3264 761 c8 -12 55 -20 61 -11 3 4 -2 11 -11 14 -24 9 -56 7 -50 -3z"/>
<path d="M3929 745 c-4 -3 0 -43 7 -88 18 -107 18 -245 0 -316 -8 -31 -16 -82
-18 -115 l-5 -58 41 6 c97 15 547 180 548 201 0 10 -109 74 -266 155 -148 76
-224 127 -268 180 -18 23 -36 38 -39 35z"/>
<path d="M2180 579 c0 -7 10 -9 25 -7 14 3 25 1 25 -3 0 -5 9 -9 20 -9 31 0
23 17 -11 24 -45 9 -59 8 -59 -5z"/>
<path d="M2186 551 c-3 -4 1 -17 8 -27 13 -17 14 -17 9 9 -6 29 -9 32 -17 18z"/>
</g>
</svg>
