<?xml version="1.0" standalone="no"?>
<!DOCTYPE svg PUBLIC "-//W3C//DTD SVG 20010904//EN"
 "http://www.w3.org/TR/2001/REC-SVG-20010904/DTD/svg10.dtd">
<svg version="1.0" xmlns="http://www.w3.org/2000/svg"
 width="442.000000pt" height="442.000000pt" viewBox="0 0 442.000000 442.000000"
 preserveAspectRatio="xMidYMid meet">
<metadata>
Created by potrace 1.11, written by Peter Selinger 2001-2013
</metadata>
<g transform="translate(0.000000,442.000000) scale(0.100000,-0.100000)"
fill="#000000" stroke="none">
<path d="M1299 4211 c-202 -91 -397 -219 -548 -358 -96 -89 -99 -95 -122 -262
-10 -72 -15 -87 -20 -66 -7 24 22 191 38 219 3 6 -10 -5 -30 -23 -30 -28 -37
-43 -38 -75 -2 -40 -2 -40 -8 -8 l-6 32 -45 -52 c-73 -84 -110 -141 -110 -168
0 -57 13 -100 31 -105 26 -9 24 -27 -11 -78 -16 -25 -30 -49 -30 -55 0 -5 -6
-15 -14 -21 -11 -9 -14 -36 -13 -105 2 -81 5 -97 28 -132 24 -36 26 -46 23
-144 -2 -116 -8 -146 -32 -155 -9 -3 -89 -6 -178 -6 l-162 1 -6 -31 c-12 -63
-17 -60 122 -59 165 1 336 -7 342 -16 3 -4 -102 -8 -232 -8 -130 -1 -238 -3
-241 -6 -3 -3 -8 -23 -11 -46 l-7 -40 56 -2 c45 -1 55 1 47 11 -9 10 5 13 65
14 42 1 88 -3 102 -8 26 -10 38 -9 34 2 -1 4 9 6 22 5 14 0 25 -7 25 -13 0 -7
5 -13 10 -13 6 0 9 5 8 12 -2 7 14 13 42 15 50 4 47 -3 -13 -35 -36 -19 -53
-20 -205 -17 -147 3 -163 2 -137 -10 l30 -13 -28 -1 c-57 -2 -67 -15 -67 -91
0 -65 1 -70 24 -76 14 -3 34 -3 44 1 11 3 23 1 27 -5 3 -6 -3 -10 -15 -10 -42
0 -13 -25 36 -31 27 -4 64 -10 82 -14 36 -8 46 9 11 18 -26 7 -21 27 9 38 16
6 20 5 15 -7 -3 -7 0 -14 5 -14 6 0 19 -13 28 -30 14 -23 23 -28 41 -24 13 4
29 1 37 -5 19 -16 50 -3 35 15 -6 8 -15 11 -20 8 -5 -3 -18 1 -30 9 -12 9 -16
18 -10 21 5 4 12 2 15 -3 3 -5 30 -12 60 -15 l55 -7 -4 -37 c-1 -20 -3 -46 -4
-56 -1 -16 -4 -17 -13 -8 -10 10 -10 17 0 32 10 16 10 20 -1 20 -17 0 -38 -45
-31 -65 8 -19 -3 -19 -22 -1 -21 22 -98 -2 -88 -27 3 -8 -7 -13 -28 -14 -71
-3 -170 -20 -176 -30 -4 -6 -19 -9 -34 -7 -15 1 -30 -1 -32 -5 -8 -12 33 -230
65 -349 42 -157 107 -325 109 -282 5 108 61 265 122 343 18 23 37 48 43 55 5
8 26 30 46 51 19 20 38 43 41 51 3 8 34 30 69 49 35 18 71 39 79 45 8 6 31 20
50 30 19 11 49 31 66 46 45 38 119 72 172 78 26 3 57 11 69 19 23 15 43 10 43
-10 0 -7 9 -29 20 -50 11 -20 20 -43 20 -50 0 -7 21 -34 47 -60 55 -56 177
-118 243 -124 42 -4 43 -3 22 10 -13 7 -62 51 -108 98 -67 66 -84 88 -79 104
4 11 9 53 12 92 4 47 9 70 16 66 6 -4 8 0 4 9 -3 9 0 21 6 28 8 9 8 11 1 7 -7
-4 -14 5 -17 22 -4 16 -18 41 -32 56 -14 16 -25 32 -25 37 0 4 -9 28 -21 53
-11 24 -19 50 -17 56 4 11 83 -65 113 -108 13 -19 131 -83 153 -83 5 0 23 -7
38 -15 16 -8 43 -15 60 -15 64 0 104 -40 104 -103 0 -26 15 -65 29 -77 3 -3
16 -26 29 -53 28 -57 43 -66 113 -66 55 1 116 27 163 71 29 26 42 22 57 -17
l14 -35 30 20 c17 11 46 32 65 46 31 22 35 23 38 9 4 -20 -81 -112 -141 -154
-21 -14 -73 -45 -115 -69 -42 -24 -66 -40 -52 -36 73 19 192 100 275 184 88
91 122 110 195 110 33 0 86 -9 117 -19 55 -19 235 -51 314 -56 20 -2 47 -8 59
-15 25 -13 166 -6 185 10 14 11 48 16 61 8 6 -4 39 -3 75 2 91 14 109 12 116
-7 4 -10 13 -22 20 -26 12 -7 12 -12 -1 -32 -12 -18 -12 -25 -3 -28 9 -4 9 -6
0 -6 -7 -1 -13 -10 -13 -21 0 -10 -6 -34 -14 -52 -38 -90 -58 -179 -55 -245 3
-56 -19 -221 -38 -283 -4 -13 -5 -13 -13 0 -6 8 -10 26 -11 40 0 14 -3 19 -6
11 -4 -11 -10 -8 -24 10 l-19 24 0 -35 -1 -35 -17 42 c-24 58 -115 150 -156
156 -17 2 -36 2 -42 0 -10 -4 -11 -45 -2 -83 1 -8 -3 -14 -9 -12 -7 1 -13 -7
-13 -18 0 -11 5 -20 10 -20 14 0 13 -27 -2 -53 -7 -12 -13 -35 -14 -51 -1 -16
-7 -32 -13 -36 -7 -3 -9 -14 -6 -22 4 -9 2 -19 -4 -23 -6 -3 -8 -17 -5 -30 3
-13 -1 -37 -9 -54 -10 -21 -12 -32 -4 -40 8 -8 4 -18 -12 -35 -21 -22 -25 -23
-49 -11 -29 16 -48 10 -33 -9 7 -9 7 -16 0 -23 -6 -6 -13 -46 -15 -89 -5 -84
-22 -154 -36 -154 -5 0 -8 -6 -7 -12 3 -21 -13 -78 -23 -84 -13 -8 -25 6 -12
14 14 9 27 62 15 62 -5 0 -8 16 -6 35 3 26 0 35 -11 35 -9 0 -12 5 -9 11 12
18 -4 61 -20 55 -9 -3 -12 0 -9 9 7 18 -16 43 -34 37 -6 -2 -12 4 -12 14 0 17
-1 17 -16 2 -15 -15 -14 -18 5 -37 12 -12 21 -31 22 -43 0 -13 2 -31 4 -41 4
-23 -12 -22 -20 1 -3 11 -17 24 -31 30 -25 12 -32 7 -38 -30 -4 -27 -32 -58
-52 -58 -26 0 -48 -40 -42 -74 3 -14 1 -26 -3 -26 -5 0 -9 -7 -9 -15 0 -21
-13 -19 -30 5 -20 28 -31 25 -26 -6 4 -20 2 -23 -8 -15 -7 6 -16 8 -19 4 -4
-3 -7 1 -7 10 0 9 -7 17 -15 17 -8 0 -15 4 -15 8 0 4 9 8 20 8 11 0 20 -5 20
-10 0 -5 3 -7 6 -4 9 9 -15 48 -29 47 -9 0 -9 -2 1 -6 6 -2 12 -9 12 -15 0 -6
-6 -8 -14 -5 -8 3 -20 -1 -26 -9 -7 -8 -9 -14 -5 -14 4 0 2 -7 -5 -15 -7 -9
-10 -19 -6 -23 4 -4 14 2 22 13 13 17 16 18 24 5 5 -8 10 -19 10 -25 0 -5 -4
-3 -10 5 -5 8 -12 11 -16 7 -4 -3 -1 -13 5 -21 13 -16 9 -20 -31 -30 -34 -8
-37 7 -5 21 l22 10 -23 7 c-12 4 -22 14 -22 22 0 9 -5 12 -11 8 -6 -3 -14 -2
-18 4 -11 18 -58 25 -58 9 0 -9 9 -13 23 -11 18 2 24 -4 30 -29 3 -18 12 -36
18 -40 8 -6 8 -10 -1 -13 -7 -3 -27 -17 -46 -32 -19 -15 -47 -35 -61 -46 -14
-10 -23 -22 -20 -27 3 -5 -3 -6 -12 -2 -11 4 -15 3 -10 -5 3 -6 -2 -16 -13
-21 -25 -14 -44 -14 -36 -1 3 6 -1 10 -9 10 -20 0 -29 -17 -14 -24 7 -3 4 -5
-7 -3 -18 2 -20 9 -18 62 1 57 0 54 -13 -23 -4 -29 -6 -31 -21 -17 -10 10 -13
24 -9 40 5 19 2 25 -10 25 -12 0 -14 -6 -9 -29 l6 -30 -73 -8 c-40 -4 -61 -9
-46 -11 40 -5 24 -30 -28 -43 -41 -11 -44 -14 -44 -45 0 -19 3 -34 8 -34 4 0
16 -7 26 -15 19 -15 19 -15 -3 -36 -18 -17 -25 -18 -36 -9 -9 8 -15 8 -15 2 0
-5 14 -15 30 -21 17 -5 30 -14 30 -19 0 -5 10 -7 23 -5 17 3 26 -4 40 -32 9
-20 17 -45 17 -55 0 -11 4 -20 9 -20 16 0 1 73 -21 103 -18 26 -19 30 -4 46
16 17 15 19 -14 31 -17 7 -42 26 -56 43 -25 30 -25 31 -7 45 16 12 64 12 144
0 22 -3 17 -34 -9 -58 -23 -22 -29 -40 -12 -40 6 0 10 -7 10 -15 0 -8 4 -15
10 -15 14 0 29 33 32 72 2 35 3 36 47 35 33 0 48 5 61 21 10 12 20 18 24 15 3
-4 -1 -15 -11 -25 -14 -16 -15 -22 -3 -46 8 -15 16 -30 18 -34 1 -4 -4 -5 -13
-2 -13 5 -15 2 -10 -19 6 -22 3 -27 -19 -33 -21 -5 -24 -10 -20 -34 5 -22 0
-31 -24 -49 -39 -27 -42 -27 -42 10 0 25 3 29 19 24 22 -7 43 15 32 34 -6 9
-11 10 -15 2 -11 -16 -26 -13 -20 4 4 8 1 15 -5 15 -6 0 -11 -7 -11 -15 0 -8
-4 -15 -10 -15 -14 0 -8 23 10 37 21 17 -2 16 -36 -2 -17 -9 -22 -15 -13 -15
21 0 30 -33 22 -87 -6 -44 -6 -44 22 -37 18 4 30 2 37 -7 8 -11 9 -10 4 4 -3
9 -2 18 2 18 37 7 50 5 45 -7 -3 -8 -10 -11 -15 -8 -6 4 -9 1 -6 -6 2 -7 14
-15 27 -17 12 -2 20 1 16 7 -3 5 7 8 25 5 17 -2 28 0 25 5 -3 4 13 27 35 51
23 24 50 54 61 66 11 12 19 30 17 40 -6 27 21 76 38 69 8 -3 14 -2 14 3 0 4
23 20 52 36 l51 28 30 -33 c26 -29 29 -38 23 -76 -7 -52 5 -62 43 -35 l29 21
6 -32 c4 -21 1 -36 -9 -47 -8 -9 -24 -27 -35 -41 -11 -14 -17 -18 -14 -8 3 9
-1 27 -10 40 l-16 22 0 -27 c0 -16 -4 -26 -10 -22 -15 9 -12 -4 5 -21 19 -19
20 -38 2 -31 -8 3 -14 -1 -14 -9 0 -18 -1 -19 56 13 56 32 76 25 41 -12 -13
-14 -21 -28 -17 -31 4 -4 68 1 143 10 351 44 716 182 980 372 343 246 610 575
768 948 26 60 48 118 49 130 1 11 6 24 11 27 5 4 9 20 10 37 0 17 4 28 7 27 3
-2 11 19 19 48 7 29 15 57 17 63 3 8 -60 13 -209 17 -117 4 -229 8 -248 11
-19 2 -108 5 -197 6 l-163 3 -39 72 c-21 40 -42 82 -46 94 l-7 22 307 -6 c214
-4 311 -3 320 5 9 8 55 7 164 -2 83 -6 152 -10 154 -7 2 2 7 16 10 30 l7 26
-178 9 c-97 5 -316 9 -487 9 -170 1 -319 2 -331 3 -17 2 -44 37 -44 57 0 9
468 -4 560 -16 111 -13 464 -18 477 -6 4 5 10 58 11 117 4 108 3 109 -20 114
-34 7 -498 28 -610 27 -53 -1 -99 3 -102 8 -6 10 445 22 617 17 l117 -4 -1 32
c0 17 -4 49 -7 71 -8 45 -4 44 -147 48 -38 1 -75 5 -80 9 -6 4 -44 6 -85 6
-107 0 -124 1 -117 8 6 6 266 6 368 -1 53 -3 74 5 51 19 -5 3 -7 18 -5 33 5
40 -8 53 -55 55 -52 2 -45 18 9 18 38 0 39 1 33 28 -3 15 -7 33 -10 40 -2 9
-34 12 -114 12 -78 0 -109 3 -104 11 4 8 1 8 -13 1 -11 -6 -25 -7 -33 -2 -8 5
-19 6 -25 2 -5 -4 -113 -8 -240 -7 -179 0 -229 3 -227 13 3 17 -15 15 -22 -3
-4 -12 -29 -15 -134 -15 -71 0 -132 3 -136 7 -10 11 -37 12 -30 2 3 -5 -30 -9
-76 -9 -52 0 -79 4 -75 10 3 6 1 10 -4 10 -6 0 -11 -4 -11 -10 0 -6 -37 -10
-91 -10 -57 0 -88 4 -84 10 3 6 1 10 -4 10 -6 0 -11 -4 -11 -10 0 -6 -88 -10
-232 -10 -128 1 -346 -2 -484 -6 l-251 -7 -23 59 c-18 46 -23 76 -21 134 1 41
-3 106 -9 144 -9 60 -9 71 6 88 10 10 17 33 17 51 -1 44 -30 197 -53 284 -23
82 -24 97 -10 88 6 -4 10 8 10 29 0 39 -19 51 -21 14 0 -16 -2 -18 -6 -8 -3 8
-10 18 -15 21 -4 3 -10 25 -12 50 -6 78 -25 150 -48 182 -12 17 -15 27 -7 22
7 -5 3 5 -11 22 -14 18 -30 32 -36 32 -17 1 -37 38 -57 102 -33 108 -176 290
-227 289 -14 -1 -73 -23 -131 -49z m-539 -410 c0 -5 -7 -14 -15 -21 -8 -7 -14
-18 -13 -24 4 -21 -13 -56 -33 -66 -15 -8 -19 -7 -19 4 0 8 6 21 13 28 6 7 13
20 15 28 8 37 52 80 52 51z m328 -139 c8 -7 11 -19 8 -27 -7 -19 2 -19 45 -1
48 20 85 11 98 -25 6 -17 17 -29 28 -29 22 -1 56 -28 66 -53 10 -26 -4 -78
-22 -85 -9 -3 -24 -16 -34 -29 -10 -13 -29 -23 -42 -23 -25 0 -65 -35 -65 -56
0 -13 -21 -20 -118 -44 -24 -6 -60 -27 -83 -47 l-39 -35 -18 22 c-10 12 -19
41 -20 64 -2 22 -7 68 -12 101 -13 79 -13 175 0 175 6 0 10 6 10 13 0 8 17 21
38 30 20 9 52 28 71 42 35 26 67 28 89 7z m-231 -185 c1 -47 -2 -65 -7 -52
-11 25 -13 125 -2 125 4 0 8 -33 9 -73z m-300 21 c-3 -8 -6 -5 -6 6 -1 11 2
17 5 13 3 -3 4 -12 1 -19z m299 -158 c12 -30 25 -76 28 -102 l6 -48 -34 38
c-40 45 -61 82 -46 82 5 0 10 -4 10 -10 0 -5 7 -10 15 -10 18 0 19 -5 -5 58
-11 29 -20 62 -19 75 0 25 0 26 45 -83z m-306 50 c0 -5 -4 -10 -10 -10 -5 0
-10 5 -10 10 0 6 5 10 10 10 6 0 10 -4 10 -10z m260 -152 c0 -4 4 -7 8 -5 8 2
56 -49 85 -92 12 -18 14 -29 5 -44 -7 -14 -7 -22 2 -27 15 -9 50 -1 50 12 0 5
5 6 10 3 6 -4 17 -2 24 4 19 16 40 -11 31 -40 -7 -21 -5 -22 33 -16 45 6 54
-4 41 -40 -7 -19 -5 -23 10 -23 11 0 21 6 24 13 3 8 7 6 12 -6 5 -12 -1 -35
-16 -65 -15 -31 -22 -61 -20 -86 2 -35 1 -38 -18 -33 -27 7 -27 -3 1 -38 15
-20 18 -30 10 -33 -19 -6 -14 -18 13 -30 13 -6 37 -31 52 -54 15 -24 32 -46
37 -50 14 -10 26 0 26 21 0 9 6 26 14 36 12 16 18 18 37 8 13 -6 39 -13 57
-16 25 -3 32 0 32 14 0 9 -7 19 -15 23 -8 3 -15 17 -15 31 0 24 15 31 58 26 6
-1 12 3 12 9 0 15 32 12 58 -6 22 -15 30 -58 12 -69 -5 -3 -7 -12 -3 -20 4
-11 -3 -15 -23 -16 -24 0 -25 -2 -10 -8 18 -7 18 -8 -3 -28 -18 -17 -19 -21
-7 -26 8 -3 20 -25 26 -49 12 -44 54 -98 76 -98 23 0 -15 -75 -47 -94 -28 -17
-31 -17 -56 -1 -18 12 -28 14 -32 6 -8 -13 -60 9 -81 34 -7 9 -27 22 -44 30
-18 9 -47 29 -65 45 -18 17 -36 30 -40 30 -4 0 -13 11 -19 25 -6 14 -17 25
-23 25 -8 0 -8 -5 1 -15 7 -9 10 -18 7 -21 -19 -19 -124 88 -183 186 -24 41
-44 78 -44 82 0 4 -7 8 -15 8 -8 0 -15 -4 -15 -10 0 -14 -42 -12 -60 3 -8 7
-24 25 -34 41 -14 22 -15 30 -6 36 9 6 8 10 -4 17 -15 8 -13 11 10 24 21 11
28 11 31 2 6 -16 29 -17 38 -2 8 12 -12 135 -26 161 -20 38 -7 38 30 -1 22
-23 44 -41 50 -41 6 0 17 -13 26 -30 9 -16 20 -30 25 -30 6 0 20 -11 32 -25
12 -14 29 -25 37 -25 14 1 14 2 -1 10 -10 6 -22 34 -28 68 -7 31 -19 68 -27
82 -9 16 -12 18 -8 5 23 -69 24 -77 9 -71 -9 3 -20 6 -25 6 -5 0 -20 22 -33
49 -14 26 -36 61 -49 77 -30 37 -40 64 -24 64 9 0 9 2 -1 8 -20 13 -62 75 -62
91 1 13 4 12 15 -3 8 -11 15 -23 15 -28z m522 -68 c48 -97 77 -214 60 -241 -7
-10 -12 -25 -12 -33 0 -10 -11 -12 -45 -8 -63 7 -58 -14 5 -22 33 -4 50 -11
50 -21 0 -15 35 -30 50 -20 5 3 10 2 10 -4 0 -5 -26 -19 -57 -31 -32 -11 -72
-27 -90 -35 -44 -21 -57 -19 -49 8 19 66 18 113 -3 147 -11 19 -21 43 -21 52
0 12 -7 17 -20 15 -13 -1 -27 8 -37 24 -14 23 -15 33 -3 74 7 26 24 63 37 82
17 26 22 43 18 63 -5 21 -2 31 12 39 29 16 54 -8 95 -89z m-499 -49 c38 -59
43 -71 29 -71 -11 0 -64 75 -80 112 -19 46 9 23 51 -41z m-37 -86 c8 -42 13
-51 14 -30 1 26 2 27 9 10 11 -27 24 -125 17 -125 -17 0 -59 91 -72 157 -8 41
-17 79 -20 84 -3 5 -2 14 2 21 10 16 34 -39 50 -117z m178 80 c-6 -16 -24 -21
-24 -7 0 11 11 22 21 22 5 0 6 -7 3 -15z m16 -171 c0 -8 -4 -14 -10 -14 -5 0
-10 2 -10 4 0 2 -3 12 -6 20 -5 12 -2 15 10 10 9 -3 16 -12 16 -20z m-527
-159 c-6 -19 -6 -18 -14 3 -5 13 -6 36 -2 50 l6 27 9 -30 c4 -16 5 -39 1 -50z
m41 -21 c7 -18 0 -34 -15 -34 -5 0 -9 11 -9 25 0 28 15 34 24 9z m1016 -49 c0
-14 -4 -25 -10 -25 -5 0 -10 11 -10 25 0 14 5 25 10 25 6 0 10 -11 10 -25z
m-970 -20 c0 -5 -5 -3 -10 5 -5 8 -10 20 -10 25 0 6 5 3 10 -5 5 -8 10 -19 10
-25z m3621 -105 c6 0 7 -4 4 -10 -3 -5 -30 -9 -58 -8 -36 1 -42 2 -19 5 17 2
32 9 32 15 0 5 7 7 16 4 9 -3 20 -6 25 -6z m89 -10 c0 -13 -40 -13 -60 0 -11
7 -5 10 23 10 20 0 37 -4 37 -10z m-1765 -10 c-4 -6 19 -10 62 -10 85 0 144
-10 137 -22 -3 -5 -22 -7 -43 -4 -53 9 -323 10 -342 2 -9 -4 -41 -5 -70 -3
l-54 3 63 2 c34 1 62 7 62 12 0 6 24 11 53 12 28 1 -15 5 -98 8 l-150 6 193 2
c127 1 191 -1 187 -8z m138 3 c-18 -2 -48 -2 -65 0 -18 2 -4 4 32 4 36 0 50
-2 33 -4z m100 0 c-13 -2 -33 -2 -45 0 -13 2 -3 4 22 4 25 0 35 -2 23 -4z
m1212 2 c-22 -8 -445 -11 -445 -3 0 4 102 8 228 7 125 0 223 -2 217 -4z m102
-1 c-3 -3 -12 -4 -19 -1 -8 3 -5 6 6 6 11 1 17 -2 13 -5z m-726 -13 c-8 -5
-20 -7 -28 -4 -21 8 -15 13 15 13 20 0 23 -3 13 -9z m97 2 c-10 -2 -28 -2 -40
0 -13 2 -5 4 17 4 22 1 32 -1 23 -4z m-630 -10 c-10 -2 -28 -2 -40 0 -13 2 -5
4 17 4 22 1 32 -1 23 -4z m149 1 c-3 -3 -12 -4 -19 -1 -8 3 -5 6 6 6 11 1 17
-2 13 -5z m798 -4 c3 -5 1 -10 -4 -10 -6 0 -11 5 -11 10 0 6 2 10 4 10 3 0 8
-4 11 -10z m282 4 c-3 -3 -12 -4 -19 -1 -8 3 -5 6 6 6 11 1 17 -2 13 -5z
m-744 -11 c-7 -2 -19 -2 -25 0 -7 3 -2 5 12 5 14 0 19 -2 13 -5z m370 0 c-7
-2 -19 -2 -25 0 -7 3 -2 5 12 5 14 0 19 -2 13 -5z m-3493 -33 c0 -5 -7 -10
-16 -10 -8 0 -12 5 -9 10 3 6 10 10 16 10 5 0 9 -4 9 -10z m219 -6 c2 -2 -30
-4 -72 -4 -45 0 -77 4 -77 10 0 9 139 4 149 -6z m69 9 c-10 -2 -26 -2 -35 0
-10 3 -2 5 17 5 19 0 27 -2 18 -5z m1695 -20 c-7 -2 -21 -2 -30 0 -10 3 -4 5
12 5 17 0 24 -2 18 -5z m200 0 c-23 -2 -64 -2 -90 0 -26 2 -7 3 42 3 50 0 71
-1 48 -3z m1172 -13 c-3 -5 -14 -6 -26 -3 -15 4 -17 8 -8 13 15 10 41 1 34
-10z m763 13 c-10 -2 -28 -2 -40 0 -13 2 -5 4 17 4 22 1 32 -1 23 -4z m89 1
c-3 -3 -12 -4 -19 -1 -8 3 -5 6 6 6 11 1 17 -2 13 -5z m-1210 -10 c-3 -3 -12
-4 -19 -1 -8 3 -5 6 6 6 11 1 17 -2 13 -5z m103 -2 c0 -4 -18 -6 -40 -4 -22 2
-40 6 -40 8 0 2 18 4 40 4 22 0 40 -3 40 -8z m173 -3 c-8 -8 -19 -8 -40 -1
-28 10 -28 10 12 11 28 1 36 -2 28 -10z m267 1 c0 -5 -9 -10 -20 -10 -11 0
-20 5 -20 10 0 6 9 10 20 10 11 0 20 -4 20 -10z m131 -9 c-8 -5 -20 -7 -28 -4
-21 8 -15 13 15 13 20 0 23 -3 13 -9z m-1281 -10 c-17 -11 -296 -8 -306 2 -4
4 67 7 157 7 99 0 158 -4 149 -9z m107 -5 c3 -3 -15 -6 -41 -6 -29 0 -45 4
-41 10 7 11 71 8 82 -4z m88 4 c-8 -13 -45 -13 -65 0 -11 7 -3 10 28 10 26 0
41 -4 37 -10z m265 -1 c0 -10 -38 -12 -110 -8 -25 1 -57 3 -72 3 -14 1 -29 4
-33 8 -4 4 43 6 104 6 61 0 111 -5 111 -9z m98 -10 c-18 -12 -95 -12 -82 0 10
11 63 19 82 12 11 -3 11 -5 0 -12z m122 1 c11 -7 -2 -10 -42 -10 -32 0 -58 4
-58 10 0 13 80 13 100 0z m180 0 c3 0 -3 -5 -12 -11 -18 -10 -121 -2 -114 10
3 5 100 6 126 1z m136 -10 c41 0 63 -4 59 -10 -4 -6 -31 -8 -63 -6 -31 2 -73
5 -92 6 -29 1 -32 3 -15 10 11 5 26 7 33 4 8 -2 43 -4 78 -4z m452 -13 c28 1
52 -3 52 -8 0 -6 5 -7 11 -3 11 7 59 8 129 4 l35 -2 -35 -10 c-34 -11 -35 -11
-10 -19 25 -8 -141 -3 -260 8 -36 3 -75 5 -87 4 -12 0 -25 3 -28 8 -3 5 -43 8
-89 6 -67 -3 -85 -1 -90 10 -4 13 18 14 157 8 89 -4 186 -7 215 -6z m277 -7
c3 -5 -1 -10 -9 -10 -8 0 -18 5 -21 10 -3 6 1 10 9 10 8 0 18 -4 21 -10z m83
-47 c-16 -2 -40 -2 -55 0 -16 2 -3 4 27 4 30 0 43 -2 28 -4z m-1318 -33 c0 -5
-4 -10 -10 -10 -5 0 -10 5 -10 10 0 6 5 10 10 10 6 0 10 -4 10 -10z m180 0
c-8 -5 -22 -9 -30 -9 -10 0 -8 3 5 9 27 12 43 12 25 0z m190 0 c18 -12 2 -12
-25 0 -13 6 -15 9 -5 9 8 0 22 -4 30 -9z m-263 -6 c-3 -3 -12 -4 -19 -1 -8 3
-5 6 6 6 11 1 17 -2 13 -5z m193 -14 c0 -5 -13 -10 -30 -10 -16 0 -30 5 -30
10 0 6 14 10 30 10 17 0 30 -4 30 -10z m313 -5 c20 -14 18 -15 -36 -15 -32 0
-56 -4 -53 -9 3 -5 16 -7 28 -3 12 3 19 1 15 -5 -3 -5 -27 -10 -54 -11 -44 -1
-46 0 -23 11 23 11 21 12 -27 15 -38 2 -51 7 -47 16 8 20 169 21 197 1z m-153
-41 c0 -2 -55 -3 -122 -2 l-123 2 100 5 c94 6 145 4 145 -5z m160 6 c0 -5 -7
-10 -15 -10 -8 0 -15 5 -15 10 0 6 7 10 15 10 8 0 15 -4 15 -10z m-986 -36
c14 -15 26 -24 26 -21 0 3 15 -7 32 -24 18 -16 35 -29 39 -29 4 0 9 -7 13 -15
10 -27 -13 -16 -61 31 -27 25 -58 50 -70 55 -13 5 -23 13 -23 19 0 17 16 11
44 -16z m-2519 -24 c3 -5 1 -10 -4 -10 -6 0 -11 5 -11 10 0 6 2 10 4 10 3 0 8
-4 11 -10z m175 0 c0 -5 -5 -10 -11 -10 -5 0 -7 5 -4 10 3 6 8 10 11 10 2 0 4
-4 4 -10z m85 0 c-3 -5 -11 -10 -16 -10 -6 0 -7 5 -4 10 3 6 11 10 16 10 6 0
7 -4 4 -10z m85 6 c0 -2 -7 -7 -16 -10 -8 -3 -12 -2 -9 4 6 10 25 14 25 6z
m11 -81 c11 6 11 5 2 -5 -12 -14 -33 -6 -33 13 0 8 3 7 9 -2 5 -8 14 -10 22
-6z m29 -50 c0 -9 -9 -15 -23 -15 -13 0 -29 -6 -36 -12 -10 -11 -12 -9 -9 7 2
13 14 22 33 26 17 4 31 7 33 8 1 0 2 -6 2 -14z m2324 0 c3 -9 0 -15 -8 -15 -7
0 -19 7 -26 15 -10 12 -9 15 8 15 11 0 22 -7 26 -15z m44 -43 c6 -18 -15 -14
-22 4 -4 10 -1 14 6 12 6 -2 14 -10 16 -16z m-908 -41 c0 -5 -6 -14 -14 -20
-12 -10 -13 -8 -9 8 5 21 23 30 23 12z m-1865 -31 c-3 -5 -11 -10 -16 -10 -6
0 -7 5 -4 10 3 6 11 10 16 10 6 0 7 -4 4 -10z m3878 -57 c-7 -2 -19 -2 -25 0
-7 3 -2 5 12 5 14 0 19 -2 13 -5z m-379 -319 c25 -9 19 -24 -9 -24 -16 0 -25
6 -25 15 0 16 9 19 34 9z m421 -4 c-3 -5 -15 -10 -26 -10 -10 0 -19 5 -19 10
0 6 12 10 26 10 14 0 23 -4 19 -10z m42 4 c-3 -3 -12 -4 -19 -1 -8 3 -5 6 6 6
11 1 17 -2 13 -5z m148 -12 c17 -9 17 -11 3 -12 -9 0 -19 -6 -21 -12 -4 -10
-8 -10 -14 -2 -4 7 -27 17 -50 23 -24 7 -43 14 -43 16 0 9 106 -2 125 -13z
m-550 -12 c3 -5 2 -10 -4 -10 -5 0 -13 5 -16 10 -3 6 -2 10 4 10 5 0 13 -4 16
-10z m220 0 c19 -8 19 -9 -2 -9 -13 -1 -23 -6 -23 -11 0 -11 105 -8 116 3 11
10 54 8 54 -2 0 -5 -8 -12 -17 -14 -14 -4 -13 -5 4 -6 12 0 25 4 28 9 3 6 11
10 17 10 7 0 6 -6 -2 -15 -9 -10 -9 -15 -1 -15 6 0 11 -4 11 -8 0 -4 -18 -8
-40 -9 -29 -2 -40 2 -40 13 0 12 -10 13 -52 8 -84 -12 -201 -6 -192 8 3 5 11
5 17 1 7 -3 4 2 -5 13 -16 18 -15 19 18 20 25 0 31 -3 24 -12 -16 -18 14 -25
37 -9 10 9 13 14 6 15 -7 0 -13 5 -13 10 0 12 27 12 55 0z m375 6 c0 -3 -4 -8
-10 -11 -5 -3 -10 -1 -10 4 0 6 5 11 10 11 6 0 10 -2 10 -4z m-133 -41 c0 -22
-14 -18 -20 4 -3 13 0 18 7 15 7 -3 13 -11 13 -19z m-397 -17 c0 -13 -23 -5
-28 10 -2 7 2 10 12 6 9 -3 16 -11 16 -16z m504 -13 c3 -9 0 -15 -9 -15 -8 0
-15 7 -15 15 0 8 4 15 9 15 5 0 11 -7 15 -15z m-590 -30 c3 -8 1 -15 -4 -15
-6 0 -10 7 -10 15 0 8 2 15 4 15 2 0 6 -7 10 -15z m219 -32 c-7 -2 -19 -2 -25
0 -7 3 -2 5 12 5 14 0 19 -2 13 -5z m-457 -438 c-3 -20 -16 -31 -16 -13 0 13
8 28 16 28 1 0 1 -7 0 -15z m-36 -29 c0 -3 -4 -8 -10 -11 -5 -3 -10 -1 -10 4
0 6 5 11 10 11 6 0 10 -2 10 -4z m-1023 -328 c-3 -8 -6 -5 -6 6 -1 11 2 17 5
13 3 -3 4 -12 1 -19z m3 -28 c0 -5 -4 -10 -10 -10 -5 0 -10 5 -10 10 0 6 5 10
10 10 6 0 10 -4 10 -10z m-160 -55 c0 -5 -5 -3 -10 5 -5 8 -10 20 -10 25 0 6
5 3 10 -5 5 -8 10 -19 10 -25z m100 10 c7 -9 8 -15 2 -15 -5 0 -12 7 -16 15
-3 8 -4 15 -2 15 2 0 9 -7 16 -15z m40 11 c0 -3 -4 -8 -10 -11 -5 -3 -10 -1
-10 4 0 6 5 11 10 11 6 0 10 -2 10 -4z m144 -83 c-10 -21 -20 -40 -23 -43 -11
-10 -33 -76 -42 -124 -5 -28 -18 -59 -29 -70 l-21 -21 7 30 c4 17 10 35 14 40
4 6 10 28 14 50 4 22 9 48 12 58 4 11 0 17 -10 17 -9 0 -16 -6 -17 -12 -3 -69
-18 -101 -17 -39 0 23 5 44 10 47 6 4 5 10 -3 14 -7 5 -19 2 -27 -7 -14 -14
-16 -13 -23 5 -4 11 -16 25 -26 31 -15 9 -16 12 -3 20 8 6 11 13 7 17 -4 4
-13 0 -20 -10 -12 -17 -14 -17 -28 0 -9 11 -9 15 -1 10 7 -4 14 -1 18 7 3 9
19 14 44 13 43 -1 58 -17 34 -37 -12 -10 -13 -9 -8 5 8 20 -3 21 -23 0 -15
-14 -14 -17 5 -36 l21 -21 15 37 c18 44 31 47 23 6 -4 -16 -5 -30 -3 -30 3 0
11 -3 20 -6 13 -5 16 2 16 42 1 38 3 45 11 32 14 -24 29 -23 29 3 0 15 5 19
15 15 10 -4 15 1 16 17 l2 22 4 -22 c2 -12 -4 -39 -13 -60z m-299 47 c3 -5 -1
-10 -9 -10 -9 0 -16 5 -16 10 0 6 4 10 9 10 6 0 13 -4 16 -10z m55 -11 c0 -4
-17 -10 -37 -14 -21 -4 -42 -10 -48 -15 -5 -4 -22 -10 -37 -14 -22 -5 -27 -3
-25 13 1 13 7 17 21 13 14 -4 17 -2 11 8 -6 9 2 11 34 5 22 -4 41 -3 41 2 0 5
9 9 20 9 11 0 20 -3 20 -7z m-160 -54 c0 -2 -6 -2 -14 1 -8 3 -32 -11 -54 -31
-36 -32 -39 -33 -29 -11 7 14 24 31 39 37 15 6 25 16 22 21 -4 6 3 5 15 -1 11
-7 21 -14 21 -16z m160 -10 c0 -19 5 -35 10 -35 6 0 10 7 10 15 0 8 7 15 16
15 9 0 12 -5 8 -11 -4 -7 -8 -29 -10 -51 -5 -51 -10 -58 -45 -58 -31 0 -51 26
-30 39 9 6 8 11 -4 21 -21 18 -19 29 9 40 18 7 22 14 19 34 -3 15 -1 26 6 26
6 0 11 -16 11 -35z m-30 5 c0 -5 -4 -10 -10 -10 -5 0 -10 5 -10 10 0 6 5 10
10 10 6 0 10 -4 10 -10z m-112 -24 c-13 -14 -28 -12 -28 5 0 5 9 9 20 9 17 0
19 -2 8 -14z m43 -28 c-24 -19 -41 -23 -41 -10 1 22 36 44 54 34 5 -3 -1 -13
-13 -24z m-51 -2 c0 -3 -4 -8 -10 -11 -5 -3 -10 -1 -10 4 0 6 5 11 10 11 6 0
10 -2 10 -4z m264 -30 c-6 -16 -24 -23 -24 -8 0 10 22 33 27 28 2 -2 1 -11 -3
-20z m-274 -24 c0 -33 -25 -72 -46 -72 -8 0 -14 -4 -14 -10 0 -19 -41 -33 -66
-21 -33 15 -30 41 11 81 19 18 32 36 30 39 -2 4 16 7 41 8 42 2 44 0 44 -25z
m240 -19 c0 -21 -3 -24 -9 -14 -5 8 -7 20 -4 28 8 21 13 15 13 -14z m-477 -3
c4 -17 2 -20 -15 -14 -14 4 -18 2 -14 -5 4 -6 2 -11 -3 -11 -6 0 -11 2 -11 4
0 2 -3 12 -7 21 -5 14 -2 16 15 10 13 -4 22 -2 22 4 0 18 7 12 13 -9z m132
-148 c-8 -2 -15 -10 -15 -18 0 -16 -9 -18 -30 -4 -13 8 -12 10 2 10 10 0 23 9
30 20 9 14 14 16 20 7 4 -7 1 -13 -7 -15z m395 -12 c0 -5 -4 -10 -10 -10 -5 0
-10 5 -10 10 0 6 5 10 10 10 6 0 10 -4 10 -10z"/>
<path d="M1058 2873 c7 -3 16 -2 19 1 4 3 -2 6 -13 5 -11 0 -14 -3 -6 -6z"/>
<path d="M1002 2830 c0 -14 2 -19 5 -12 2 6 2 18 0 25 -3 6 -5 1 -5 -13z"/>
<path d="M1398 2633 c7 -3 16 -2 19 1 4 3 -2 6 -13 5 -11 0 -14 -3 -6 -6z"/>
<path d="M2428 2563 c7 -3 16 -2 19 1 4 3 -2 6 -13 5 -11 0 -14 -3 -6 -6z"/>
<path d="M2230 446 c0 -8 5 -18 10 -21 6 -4 8 -15 5 -26 -4 -13 -2 -19 9 -19
10 0 13 6 10 15 -4 8 -1 15 5 15 18 0 12 14 -14 33 -21 15 -25 15 -25 3z"/>
<path d="M431 3324 c0 -11 3 -14 6 -6 3 7 2 16 -1 19 -3 4 -6 -2 -5 -13z"/>
<path d="M3420 2690 c0 -5 5 -10 10 -10 6 0 10 5 10 10 0 6 -4 10 -10 10 -5 0
-10 -4 -10 -10z"/>
<path d="M10 2196 c0 -8 8 -17 18 -19 16 -4 16 -5 0 -6 -31 -2 -19 -21 13 -21
21 0 29 4 25 13 -3 6 -9 20 -12 30 -8 20 -44 23 -44 3z"/>
<path d="M75 2110 c-4 -6 9 -11 32 -12 21 0 59 -2 86 -3 26 -2 47 1 47 5 0 18
-154 27 -165 10z"/>
<path d="M78 2053 c7 -3 16 -2 19 1 4 3 -2 6 -13 5 -11 0 -14 -3 -6 -6z"/>
<path d="M1620 1835 c0 -9 6 -12 15 -9 8 4 15 10 15 15 0 5 -7 9 -15 9 -8 0
-15 -7 -15 -15z"/>
<path d="M1700 1740 c-13 -8 -13 -10 2 -10 9 0 20 5 23 10 8 13 -5 13 -25 0z"/>
<path d="M2715 1660 c3 -5 11 -10 16 -10 6 0 7 5 4 10 -3 6 -11 10 -16 10 -6
0 -7 -4 -4 -10z"/>
<path d="M2785 1600 c3 -5 8 -10 11 -10 2 0 4 5 4 10 0 6 -5 10 -11 10 -5 0
-7 -4 -4 -10z"/>
<path d="M1878 1553 c-21 -3 -28 -10 -28 -27 0 -13 7 -29 16 -36 13 -11 16
-10 21 8 8 32 23 27 23 -8 0 -20 -5 -30 -15 -30 -19 0 -20 -55 -3 -111 12 -43
14 -44 53 -29 24 9 26 14 23 65 -2 30 -6 55 -10 55 -5 0 -8 11 -8 25 0 31 -26
96 -37 94 -4 -1 -20 -4 -35 -6z m52 -158 c0 -14 -2 -25 -4 -25 -2 0 -6 11 -8
25 -3 14 -1 25 3 25 5 0 9 -11 9 -25z"/>
<path d="M2846 1537 c3 -10 9 -15 12 -12 3 3 0 11 -7 18 -10 9 -11 8 -5 -6z"/>
<path d="M1801 1531 c-13 -8 -12 -15 2 -52 9 -23 15 -45 12 -48 -3 -2 -13 14
-22 37 -11 28 -22 42 -35 42 -10 0 -18 -3 -18 -7 0 -5 16 -59 36 -120 25 -78
41 -113 51 -113 16 0 15 18 -2 100 -5 21 -4 22 3 5 5 -11 13 -33 18 -49 11
-35 27 -37 33 -4 3 24 -48 218 -58 218 -3 0 -12 -4 -20 -9z"/>
<path d="M2126 1526 c3 -8 22 -27 42 -43 l37 -28 -19 30 c-29 45 -73 74 -60
41z"/>
<path d="M2190 1527 c0 -4 9 -27 20 -49 11 -23 20 -44 20 -46 0 -2 -21 8 -46
23 l-46 27 7 -23 c4 -13 13 -27 19 -31 8 -6 7 -8 -1 -8 -7 0 -13 -4 -13 -10 0
-5 14 -10 32 -10 30 0 30 -1 14 -19 -20 -22 -4 -40 19 -21 11 9 14 6 17 -17 2
-16 9 -28 18 -29 34 -2 38 -5 44 -30 4 -15 9 -24 13 -21 3 3 -5 26 -18 51 -12
25 -20 49 -16 52 3 3 13 -8 22 -25 18 -35 35 -41 35 -12 0 11 10 27 23 36 20
15 20 16 2 11 -11 -3 -31 1 -45 10 l-25 14 30 -6 c25 -5 28 -4 18 7 -7 7 -13
21 -13 31 0 15 -4 16 -25 8 -28 -11 -33 1 -10 20 19 16 19 27 0 46 -13 13 -15
12 -21 -11 -8 -31 -24 -23 -24 13 0 22 -5 27 -25 27 -14 0 -25 -4 -25 -8z"/>
<path d="M2880 1521 c0 -5 7 -12 16 -15 14 -5 15 -4 4 9 -14 17 -20 19 -20 6z"/>
<path d="M1663 1468 c-18 -11 -33 -24 -33 -29 0 -5 11 -31 23 -57 13 -26 32
-71 42 -99 19 -53 45 -71 45 -32 0 11 -13 54 -30 96 -16 41 -30 80 -30 86 0
26 35 -40 56 -107 23 -74 50 -97 48 -41 -2 37 -65 198 -79 201 -5 1 -25 -7
-42 -18z"/>
<path d="M1573 1408 c-37 -26 -39 -35 -17 -66 12 -18 19 -20 29 -12 8 6 11 18
8 26 -3 8 -1 14 5 14 5 0 12 -7 16 -15 6 -18 -2 -45 -15 -45 -5 0 -9 -10 -9
-22 0 -17 -6 -12 -29 24 -37 59 -46 63 -68 35 -10 -13 -26 -26 -36 -30 -27
-10 -31 -33 -12 -69 10 -18 26 -49 36 -68 29 -55 55 -84 63 -71 4 6 -8 40 -26
74 -19 34 -37 71 -41 82 l-7 20 16 -20 c8 -11 29 -46 45 -77 16 -32 33 -58 39
-58 23 0 18 25 -21 95 -23 42 -39 78 -36 81 6 7 49 -65 72 -119 13 -33 18 -37
31 -26 8 7 12 19 9 28 -5 12 -4 13 6 4 17 -17 69 11 69 36 0 30 -77 201 -90
201 -3 0 -20 -10 -37 -22z m82 -158 c5 -17 4 -22 -3 -15 -5 6 -13 21 -17 35
-5 17 -4 22 3 15 5 -5 13 -21 17 -35z m-37 -35 c-3 -3 -9 2 -12 12 -6 14 -5
15 5 6 7 -7 10 -15 7 -18z"/>
<path d="M1262 1280 c0 -14 2 -19 5 -12 2 6 2 18 0 25 -3 6 -5 1 -5 -13z"/>
<path d="M1220 1275 c-10 -12 -10 -15 1 -16 8 0 3 -5 -10 -10 -18 -7 -22 -15
-18 -35 3 -17 1 -24 -7 -21 -8 3 -13 -8 -14 -31 l-3 -36 24 22 c25 24 31 52
13 64 -7 5 -7 8 2 8 7 0 10 5 6 11 -5 8 1 10 19 5 16 -4 29 -1 33 6 5 8 2 9
-9 5 -16 -6 -21 3 -18 31 2 16 -4 15 -19 -3z"/>
<path d="M1365 1250 c-17 -18 -17 -21 -1 -45 21 -33 30 -32 23 2 l-5 28 19
-24 c17 -21 18 -26 5 -39 -12 -13 -11 -20 12 -58 28 -47 44 -53 68 -29 17 16
16 17 -44 123 -20 34 -41 62 -48 62 -6 0 -19 -9 -29 -20z m89 -116 c9 -24 7
-28 -9 -14 -17 14 -20 30 -6 30 5 0 12 -7 15 -16z"/>
<path d="M1308 1196 c-27 -20 -22 -35 33 -103 52 -66 55 -68 78 -54 12 8 13
14 3 35 -14 31 -37 35 -29 5 5 -17 3 -18 -9 -8 -10 8 -13 21 -9 37 4 17 -2 36
-20 63 -14 22 -26 39 -28 39 -1 0 -10 -7 -19 -14z m36 -52 c5 -14 4 -15 -9 -4
-17 14 -19 20 -6 20 5 0 12 -7 15 -16z"/>
<path d="M2080 1181 c0 -5 12 -14 28 -20 l27 -11 -27 5 c-21 4 -28 1 -28 -10
0 -12 -6 -15 -20 -10 -14 4 -20 2 -20 -9 0 -9 7 -13 20 -11 16 3 20 -2 22 -28
0 -18 0 -44 -1 -59 -2 -21 2 -28 16 -27 10 0 13 3 6 6 -7 2 -13 9 -13 14 0 4
6 6 14 3 11 -4 13 0 9 17 -4 15 -3 20 5 15 8 -5 10 2 6 24 -6 25 -4 29 10 24
9 -3 16 -11 16 -17 0 -8 4 -7 12 1 9 9 7 16 -7 32 -10 11 -15 20 -10 20 4 0
18 -11 31 -25 16 -18 33 -25 56 -24 l33 1 -30 9 c-17 4 -48 27 -70 49 -36 37
-85 55 -85 31z"/>
<path d="M2040 1169 c0 -5 5 -7 10 -4 6 3 10 8 10 11 0 2 -4 4 -10 4 -5 0 -10
-5 -10 -11z"/>
<path d="M1241 1136 c-17 -21 86 -138 114 -130 29 9 30 11 4 43 -13 16 -35 46
-49 65 -26 37 -50 45 -69 22z m99 -99 c0 -5 -16 8 -35 29 -19 20 -35 42 -35
48 1 12 70 -64 70 -77z"/>
<path d="M1790 1102 c0 -21 5 -32 14 -32 20 0 29 -35 17 -59 -14 -26 -14 -27
7 -27 17 0 18 5 10 44 -4 24 -6 48 -3 52 2 4 -7 18 -20 30 l-25 23 0 -31z"/>
<path d="M1900 1113 c0 -12 -7 -14 -30 -9 -18 3 -30 1 -30 -5 0 -6 15 -9 35
-8 19 2 40 -2 47 -9 9 -9 6 -12 -17 -12 -21 0 -26 -3 -16 -9 8 -5 9 -11 3 -15
-6 -4 -15 1 -20 10 -7 12 -11 13 -17 5 -9 -15 24 -41 42 -34 7 3 13 0 13 -6 0
-6 -4 -11 -10 -11 -5 0 -10 -6 -10 -13 0 -8 7 -14 15 -14 8 0 15 4 15 9 0 10
60 5 78 -6 16 -10 42 23 42 52 0 19 -3 23 -9 13 -7 -10 -10 -10 -16 -1 -4 7
-2 16 5 20 8 5 9 10 2 14 -6 4 -9 14 -6 24 5 14 3 14 -10 -2 -9 -11 -16 -14
-16 -8 0 7 -9 12 -20 12 -22 0 -27 -16 -7 -23 10 -4 10 -7 0 -18 -9 -9 -13 -9
-13 -1 0 6 -11 22 -25 36 -19 19 -25 21 -25 9z m105 -43 c-3 -5 -11 -10 -16
-10 -6 0 -7 5 -4 10 3 6 11 10 16 10 6 0 7 -4 4 -10z m-65 -39 c0 -11 3 -10
14 5 14 18 15 18 22 1 9 -24 0 -31 -29 -23 -27 6 -44 33 -21 33 8 0 14 -7 14
-16z m90 -11 c0 -5 -9 -8 -19 -7 -12 1 -19 8 -18 18 1 14 5 15 19 8 10 -5 18
-14 18 -19z"/>
<path d="M1771 1098 c0 -9 -8 -21 -16 -25 -9 -5 -11 -13 -6 -22 7 -11 11 -9
21 8 6 12 9 30 7 39 -4 16 -5 16 -6 0z"/>
<path d="M1740 1090 c0 -5 5 -10 10 -10 6 0 10 5 10 10 0 6 -4 10 -10 10 -5 0
-10 -4 -10 -10z"/>
<path d="M1190 1062 c0 -4 10 -16 23 -26 12 -10 32 -28 44 -38 22 -20 63 -18
63 3 0 6 -8 8 -17 5 -12 -3 -32 7 -57 29 -37 34 -56 43 -56 27z"/>
<path d="M440 1051 c0 -6 5 -11 10 -11 6 0 10 -6 10 -14 0 -8 4 -17 9 -20 14
-9 1 32 -15 45 -10 8 -14 8 -14 0z"/>
<path d="M1146 1031 c-15 -16 -15 -19 -1 -31 14 -12 19 -7 16 13 -1 5 4 7 11
4 7 -2 12 -16 10 -30 -3 -34 28 -53 58 -35 26 17 26 20 -12 49 -69 51 -64 50
-82 30z m84 -63 c0 -13 -23 -5 -28 10 -2 7 2 10 12 6 9 -3 16 -11 16 -16z"/>
<path d="M1697 1023 c-9 -9 -9 -43 1 -43 4 0 17 -3 30 -6 17 -5 22 -2 22 12 0
16 -2 17 -10 4 -9 -13 -11 -13 -20 0 -5 8 -8 21 -5 28 5 13 -7 17 -18 5z"/>
<path d="M1110 993 c0 -5 17 -22 37 -40 21 -17 35 -34 32 -38 -4 -3 -23 8 -43
26 -20 17 -39 29 -42 26 -7 -7 57 -66 72 -67 6 0 17 6 23 13 8 11 3 22 -26 50
-35 36 -53 45 -53 30z"/>
<path d="M491 979 c-1 -9 7 -23 17 -30 15 -12 16 -12 6 1 -6 8 -14 22 -17 30
-5 13 -6 12 -6 -1z"/>
<path d="M1648 972 c-3 -12 -2 -20 3 -16 5 3 12 -2 16 -12 6 -16 -22 -48 -36
-40 -3 2 -6 -6 -6 -19 0 -22 1 -22 39 -9 21 8 48 14 60 14 30 0 42 11 50 43 6
25 5 27 -13 15 -16 -10 -18 -15 -8 -27 10 -12 9 -13 -10 -2 -19 10 -22 9 -17
-4 8 -20 -3 -19 -27 3 -12 12 -17 25 -13 36 4 12 2 15 -9 10 -10 -3 -17 1 -19
13 -3 15 -5 15 -10 -5z m32 -72 c0 -5 -4 -10 -10 -10 -5 0 -10 5 -10 10 0 6 5
10 10 10 6 0 10 -4 10 -10z"/>
<path d="M1825 958 c5 -12 2 -18 -8 -18 -8 0 -17 6 -20 13 -2 6 -4 0 -3 -15 1
-21 4 -24 18 -17 25 13 32 29 19 42 -9 9 -11 8 -6 -5z"/>
<path d="M1956 955 c25 -19 40 -19 24 0 -7 8 -20 15 -28 15 -13 0 -12 -3 4
-15z"/>
<path d="M2010 951 c0 -11 4 -22 9 -25 5 -3 9 6 9 19 0 14 -4 25 -9 25 -5 0
-9 -9 -9 -19z"/>
<path d="M1706 952 c-3 -5 1 -9 9 -9 8 0 15 4 15 9 0 4 -4 8 -9 8 -6 0 -12 -4
-15 -8z"/>
<path d="M1894 952 c-18 -12 -24 -40 -10 -45 10 -4 12 1 8 15 -3 14 -1 19 6
14 7 -4 12 -1 12 8 0 18 -1 19 -16 8z"/>
<path d="M1340 935 c0 -8 -4 -15 -10 -15 -5 0 -9 -10 -9 -22 1 -18 2 -19 6 -5
2 9 9 15 14 12 5 -4 9 5 9 19 0 14 -2 26 -5 26 -3 0 -5 -7 -5 -15z"/>
<path d="M1850 939 c0 -5 5 -7 10 -4 6 3 10 8 10 11 0 2 -4 4 -10 4 -5 0 -10
-5 -10 -11z"/>
<path d="M1950 940 c0 -6 -4 -9 -9 -6 -5 3 -11 0 -14 -7 -3 -7 4 -12 19 -12
24 0 33 18 14 30 -5 3 -10 1 -10 -5z"/>
<path d="M1070 931 c0 -4 18 -20 40 -35 47 -31 51 -26 13 15 -27 28 -53 38
-53 20z"/>
<path d="M1429 908 c-5 -93 -4 -168 1 -168 12 0 9 -164 -3 -178 -14 -18 8 -41
24 -25 8 8 10 68 8 192 -3 100 -1 181 3 181 8 0 18 -115 21 -241 1 -54 5 -95
10 -92 4 2 7 51 7 108 0 62 4 106 10 110 7 4 7 11 2 18 -5 7 -12 32 -15 56 -6
45 -18 61 -49 61 -12 0 -18 -8 -19 -22z"/>
<path d="M1821 893 c-1 -12 4 -25 9 -28 12 -7 12 2 0 30 -8 19 -9 19 -9 -2z"/>
<path d="M1848 887 c3 -12 8 -24 11 -27 4 -3 11 -24 17 -47 9 -34 8 -43 -3
-47 -7 -3 -13 -13 -13 -21 0 -9 4 -14 9 -11 24 15 20 -54 -4 -84 -7 -8 -15
-42 -18 -75 -6 -59 -6 -59 6 -20 10 31 21 44 50 58 46 21 49 45 4 38 -4 -1 -7
11 -6 26 1 16 -1 35 -5 43 -3 8 -1 22 4 30 9 13 11 13 20 0 5 -8 10 -19 10
-25 0 -5 -4 -3 -10 5 -12 19 -22 8 -14 -14 4 -9 12 -15 18 -13 6 2 20 0 30 -6
15 -7 18 -6 13 6 -3 8 0 18 8 20 16 7 25 -1 25 -24 0 -25 37 -13 44 14 7 27
-9 46 -26 29 -28 -28 -35 3 -13 59 8 22 -30 63 -51 55 -10 -4 -21 -1 -26 6 -6
10 -8 9 -8 -3 0 -9 -9 -19 -20 -22 -24 -6 -28 18 -5 27 8 3 15 10 15 16 0 8
-6 8 -20 0 -16 -8 -20 -8 -20 4 0 7 -6 16 -14 19 -10 4 -12 0 -8 -16z m88 -64
c-10 -11 -36 -12 -36 -2 0 5 10 9 22 9 12 0 18 -3 14 -7z m58 -2 c4 -5 1 -22
-5 -38 -7 -17 -13 -23 -16 -15 -3 8 0 19 6 25 17 17 13 25 -11 30 -23 4 -23 4
-1 6 12 0 24 -3 27 -8z m-24 -21 c0 -5 -4 -10 -10 -10 -5 0 -10 5 -10 10 0 6
5 10 10 10 6 0 10 -4 10 -10z m-49 -23 c-13 -13 -26 -3 -16 12 3 6 11 8 17 5
6 -4 6 -10 -1 -17z m39 -11 c0 -3 -4 -8 -10 -11 -5 -3 -10 -1 -10 4 0 6 5 11
10 11 6 0 10 -2 10 -4z m15 -26 c-3 -5 -11 -10 -16 -10 -6 0 -7 5 -4 10 3 6
11 10 16 10 6 0 7 -4 4 -10z"/>
<path d="M1998 889 c-10 -10 -16 -19 -14 -19 2 0 10 -2 18 -5 9 -4 14 3 16 20
2 29 2 29 -20 4z"/>
<path d="M1053 893 c-30 -6 -29 -15 7 -41 35 -27 65 -29 31 -3 -16 12 -22 24
-18 35 4 9 5 15 4 15 -1 -1 -12 -4 -24 -6z"/>
<path d="M1941 893 c-1 -17 16 -25 25 -12 4 7 3 9 -4 5 -5 -3 -13 0 -15 6 -4
9 -6 10 -6 1z"/>
<path d="M1100 865 c7 -8 16 -15 21 -15 5 0 6 7 3 15 -4 8 -13 15 -21 15 -13
0 -13 -3 -3 -15z"/>
<path d="M1011 842 c-7 -13 -7 -22 1 -30 18 -18 32 -14 17 4 -10 13 -10 17 0
24 9 5 10 10 3 14 -6 4 -16 -2 -21 -12z"/>
<path d="M1050 821 c0 -5 7 -12 16 -15 24 -9 28 -7 14 9 -14 17 -30 20 -30 6z"/>
<path d="M976 785 c-6 -17 37 -65 58 -65 8 0 7 3 -1 8 -6 4 -13 21 -15 37 -3
33 -32 46 -42 20z m29 -15 c3 -5 1 -10 -4 -10 -6 0 -11 5 -11 10 0 6 2 10 4
10 3 0 8 -4 11 -10z"/>
<path d="M1396 785 c-3 -8 -1 -15 4 -15 6 0 10 7 10 15 0 8 -2 15 -4 15 -2 0
-6 -7 -10 -15z"/>
<path d="M1055 780 c-3 -5 -1 -10 4 -10 6 0 11 5 11 10 0 6 -2 10 -4 10 -3 0
-8 -4 -11 -10z"/>
<path d="M2144 766 c-3 -9 -11 -13 -17 -9 -6 3 -7 1 -3 -5 10 -17 26 -15 26 3
0 17 16 20 23 5 3 -6 4 -5 3 2 -4 19 -25 21 -32 4z"/>
<path d="M965 730 c3 -5 8 -10 11 -10 2 0 4 5 4 10 0 6 -5 10 -11 10 -5 0 -7
-4 -4 -10z"/>
<path d="M2091 728 c-1 -9 -10 -20 -21 -23 -13 -4 -20 -15 -20 -31 0 -23 2
-24 15 -10 8 8 15 19 15 25 0 5 6 11 14 13 9 2 11 9 5 23 -6 16 -8 17 -8 3z"/>
<path d="M950 713 c0 -8 25 -32 48 -47 7 -4 10 -2 6 6 -6 16 -54 52 -54 41z"/>
<path d="M2121 704 c0 -11 3 -14 6 -6 3 7 2 16 -1 19 -3 4 -6 -2 -5 -13z"/>
<path d="M1927 683 c-11 -11 -8 -23 6 -20 6 1 12 -8 12 -20 1 -29 9 -36 34
-28 35 11 20 45 -22 49 -4 1 -11 7 -16 14 -4 7 -10 9 -14 5z"/>
<path d="M1104 598 c-3 -5 -10 -6 -15 -3 -11 7 -44 -23 -35 -32 3 -3 1 -12 -5
-19 -7 -8 -7 -14 1 -19 6 -3 8 -11 5 -16 -6 -8 8 -13 28 -10 4 0 7 -4 7 -10 0
-5 5 -7 10 -4 6 3 10 2 10 -4 0 -5 -5 -13 -10 -16 -12 -7 -4 -25 11 -25 6 0 8
4 5 9 -3 5 1 12 10 15 14 5 14 9 3 23 -10 12 -10 14 -1 9 6 -4 12 -2 12 3 0 6
-13 11 -30 11 -16 0 -30 5 -30 10 0 6 3 9 8 9 19 -3 26 2 13 10 -23 15 -4 31
24 21 20 -8 23 -6 19 8 -5 14 -3 13 10 -2 15 -18 16 -18 16 -2 0 10 5 14 11
10 6 -3 9 -14 6 -24 -3 -11 2 -21 11 -25 13 -5 14 -8 3 -14 -11 -7 -10 -11 5
-20 17 -9 16 -10 -8 -11 -32 0 -46 -16 -21 -24 10 -3 6 -4 -9 -2 -28 3 -42
-13 -32 -38 3 -9 -5 -15 -27 -20 -27 -5 -30 -8 -19 -21 10 -13 15 -13 21 -3 5
7 36 14 79 16 66 4 72 3 77 -17 4 -16 11 -19 27 -15 33 8 76 -12 76 -36 0 -16
7 -20 30 -20 17 0 30 -4 30 -10 0 -21 22 -8 73 41 28 29 68 58 87 65 28 11 30
13 12 14 -13 0 -32 -5 -43 -10 -10 -6 -19 -8 -19 -6 0 3 12 12 28 20 l27 15
-45 1 c-28 0 -57 -8 -78 -20 -69 -42 -91 -16 -52 60 30 58 15 49 -20 -12 -51
-90 -52 -90 -95 -76 -40 14 -85 76 -64 88 10 7 1 37 -21 70 -5 8 -14 28 -20
43 -8 24 -13 26 -30 17 -11 -6 -20 -7 -20 -2 0 10 -40 10 -46 0z m56 -162 c0
-3 -4 -8 -10 -11 -5 -3 -10 -1 -10 4 0 6 5 11 10 11 6 0 10 -2 10 -4z m255
-76 c-3 -5 -12 -10 -18 -10 -7 0 -6 4 3 10 19 12 23 12 15 0z m37 -42 c-7 -7
-12 -8 -12 -2 0 14 12 26 19 19 2 -3 -1 -11 -7 -17z"/>
<path d="M1556 601 c-4 -5 3 -7 14 -4 23 6 26 13 6 13 -8 0 -17 -4 -20 -9z"/>
<path d="M1970 570 c0 -5 5 -10 11 -10 5 0 7 5 4 10 -3 6 -8 10 -11 10 -2 0
-4 -4 -4 -10z"/>
<path d="M1798 533 c7 -3 16 -2 19 1 4 3 -2 6 -13 5 -11 0 -14 -3 -6 -6z"/>
<path d="M1912 467 c-20 -21 -21 -25 -7 -37 8 -7 18 -10 22 -6 3 3 0 6 -7 6
-9 0 -8 4 4 13 10 7 17 21 15 31 -4 16 -7 15 -27 -7z"/>
<path d="M1165 364 c12 -9 21 -11 23 -4 5 15 22 12 22 -4 0 -21 27 -38 65 -41
43 -2 45 7 6 22 -25 9 -31 8 -34 -6 -3 -10 -6 -7 -7 9 -1 14 -2 28 -1 33 0 4
-20 7 -46 7 -45 -1 -47 -2 -28 -16z"/>
<path d="M1130 340 c0 -5 5 -10 11 -10 5 0 7 5 4 10 -3 6 -8 10 -11 10 -2 0
-4 -4 -4 -10z"/>
<path d="M1303 303 c-32 -6 -28 -19 8 -32 42 -14 49 -14 49 4 0 10 -8 13 -27
11 -16 -2 -22 -1 -15 1 6 2 12 9 12 14 0 5 -1 8 -2 8 -2 -1 -13 -4 -25 -6z"/>
<path d="M2205 235 c0 -60 -4 -79 -21 -102 -25 -32 -70 -35 -91 -6 -7 9 -13
11 -13 5 0 -18 38 -52 58 -52 10 0 22 -4 28 -10 15 -15 30 2 42 52 13 52 16
157 4 175 -4 6 -7 -22 -7 -62z"/>
<path d="M1810 275 c-7 -9 -11 -17 -9 -20 3 -2 10 5 17 15 14 24 10 26 -8 5z"/>
<path d="M1880 270 c0 -5 5 -10 11 -10 5 0 7 5 4 10 -3 6 -8 10 -11 10 -2 0
-4 -4 -4 -10z"/>
<path d="M1826 254 c-9 -24 -2 -26 12 -4 7 11 8 20 3 20 -5 0 -12 -7 -15 -16z"/>
<path d="M1583 239 c14 -8 22 -8 30 0 8 8 3 11 -18 11 -26 -1 -28 -2 -12 -11z"/>
<path d="M1855 240 c3 -5 1 -10 -4 -10 -6 0 -11 -5 -11 -11 0 -8 5 -8 15 1 17
14 20 30 4 30 -5 0 -7 -4 -4 -10z"/>
<path d="M1880 220 c0 -5 5 -10 10 -10 6 0 10 5 10 10 0 6 -4 10 -10 10 -5 0
-10 -4 -10 -10z"/>
<path d="M1498 155 c-3 -14 -1 -25 3 -25 5 0 9 11 9 25 0 14 -2 25 -4 25 -2 0
-6 -11 -8 -25z"/>
<path d="M1592 171 c-8 -4 -13 -11 -13 -15 0 -3 -2 -13 -6 -22 -5 -14 11 -33
28 -34 4 0 9 18 11 40 4 42 2 45 -20 31z"/>
</g>
</svg>
